<svg width="554" height="554" role="img" viewBox="0 0 554 554" fill="none" xmlns="http://www.w3.org/2000/svg">
<path d="M171.153 62.1924H58.6132V179.496H171.153V62.1924Z" fill="#E0E0E0"/>
<path d="M163.53 62.1924H50.9902V179.496H163.53V62.1924Z" fill="#FAFAFA"/>
<path d="M163.563 179.496H50.968V62.1592H163.563V179.496ZM51.0234 179.496H163.496V62.2367H51.0234V179.496Z" fill="#E0E0E0"/>
<path d="M148.394 77.9697H66.1144V163.74H148.394V77.9697Z" fill="#FAFAFA"/>
<path d="M66.1144 164.306C65.536 165.171 64.8552 165.964 64.0867 166.666C62.7793 168.051 60.9289 169.99 58.857 171.973C56.785 173.956 54.8903 175.829 53.4832 177.114C52.7677 177.864 51.9684 178.53 51.101 179.097C51.6988 178.234 52.3981 177.445 53.184 176.749C54.4914 175.364 56.3418 173.425 58.4248 171.43C60.5079 169.436 62.4026 167.563 63.8097 166.278C64.5005 165.535 65.2737 164.873 66.1144 164.306Z" fill="#E0E0E0"/>
<path d="M148.394 164.095C149.257 164.678 150.048 165.358 150.754 166.122C152.151 167.441 154.023 169.291 156.062 171.352C158.101 173.413 159.918 175.33 161.203 176.737C161.959 177.443 162.625 178.239 163.186 179.108C162.327 178.531 161.538 177.854 160.837 177.092C159.452 175.773 157.569 173.923 155.519 171.851C153.469 169.779 151.663 167.862 150.367 166.466C149.618 165.756 148.956 164.96 148.394 164.095Z" fill="#E0E0E0"/>
<path d="M148.173 78.1919C148.756 77.3298 149.436 76.5378 150.2 75.8318C151.519 74.4468 153.369 72.5743 155.43 70.5356C157.491 68.4969 159.408 66.6797 160.815 65.3834C161.522 64.6321 162.319 63.9698 163.186 63.4111C162.609 64.2707 161.932 65.0592 161.17 65.7601C159.851 67.1451 158.001 69.0287 155.929 71.0674C153.857 73.1061 151.94 74.9343 150.544 76.2307C149.836 76.978 149.04 77.6365 148.173 78.1919Z" fill="#E0E0E0"/>
<path d="M65.8928 78.4021C65.0273 77.8237 64.2348 77.1429 63.5327 76.3744C62.1477 75.067 60.2752 73.2166 58.2365 71.1447C56.1978 69.0727 54.3806 67.178 53.0843 65.7709C52.3341 65.0554 51.6686 64.2561 51.101 63.3887C51.9615 63.9566 52.7534 64.6221 53.461 65.372C54.846 66.6794 56.785 68.5298 58.7683 70.6128C60.7516 72.6959 62.6352 74.5905 63.9205 75.9977C64.6768 76.7127 65.3394 77.5206 65.8928 78.4021Z" fill="#E0E0E0"/>
<path d="M148.173 163.741C148.173 163.741 148.173 163.586 148.173 163.32C148.173 163.054 148.173 162.633 148.173 162.123C148.173 161.015 148.173 159.497 148.173 157.492C148.173 153.425 148.173 147.52 148.084 140.007C148.084 124.994 147.996 103.587 147.918 77.9594L148.239 78.2697H66.2473L66.6019 77.904C66.6019 109.382 66.6019 138.844 66.6019 163.674L66.2916 163.353L125.703 163.519L142.389 163.597H146.821H147.929H148.328H147.962H146.854H142.5L125.88 163.674L66.2695 163.84H65.9482V163.53C65.9482 138.689 65.9482 109.238 65.9482 77.76V77.5605H66.3138H148.306H148.472V77.8819C148.406 103.587 148.35 125.061 148.306 140.129C148.306 147.597 148.239 153.492 148.228 157.536C148.228 159.519 148.228 161.048 148.228 162.101C148.228 162.6 148.228 162.987 148.228 163.264C148.225 163.425 148.207 163.584 148.173 163.741Z" fill="#E0E0E0"/>
<path d="M120.983 107.122H93.5263V134.578H120.983V107.122Z" fill="#EBEBEB"/>
<path d="M442.899 64.2928L432.03 64.3516L432.322 118.454L443.192 118.396L442.899 64.2928Z" fill="#E0E0E0"/>
<path d="M365.984 64.4434L337.83 64.5957L337.992 94.4669L366.145 94.3146L365.984 64.4434Z" fill="#EBEBEB"/>
<path d="M394.026 64.2919L365.861 64.4443L366.023 94.3156L394.188 94.1632L394.026 64.2919Z" fill="#F5F5F5"/>
<path d="M337.874 72.8625C356.584 73.0177 375.313 72.9327 394.06 72.6077C394.14 72.6077 394.216 72.5762 394.272 72.5201C394.328 72.464 394.359 72.3879 394.359 72.3085C394.359 72.2292 394.328 72.1531 394.272 72.097C394.216 72.0409 394.14 72.0094 394.06 72.0094C375.346 71.9097 356.577 72.0094 337.874 72.3529C337.806 72.3529 337.741 72.3797 337.693 72.4275C337.646 72.4753 337.619 72.5401 337.619 72.6077C337.619 72.6753 337.646 72.7401 337.693 72.7879C337.741 72.8357 337.806 72.8625 337.874 72.8625Z" fill="#E0E0E0"/>
<path d="M371.428 93.8199L320.273 94.0967L320.404 118.439L371.56 118.162L371.428 93.8199Z" fill="#EBEBEB"/>
<path d="M422.35 93.5445L371.194 93.8213L371.326 118.164L422.481 117.887L422.35 93.5445Z" fill="#F5F5F5"/>
<path d="M320.312 100.883C354.294 101.271 388.398 100.883 422.392 100.373C422.471 100.373 422.547 100.342 422.603 100.286C422.659 100.23 422.691 100.154 422.691 100.074C422.691 99.995 422.659 99.9189 422.603 99.8628C422.547 99.8067 422.471 99.7751 422.392 99.7751C388.409 99.5979 354.294 99.62 320.312 100.373C320.244 100.373 320.179 100.4 320.132 100.448C320.084 100.496 320.057 100.561 320.057 100.628C320.057 100.696 320.084 100.761 320.132 100.808C320.179 100.856 320.244 100.883 320.312 100.883Z" fill="#E0E0E0"/>
<path d="M499.387 118.456H301.177V127.176H499.387V118.456Z" fill="#E0E0E0"/>
<path d="M341.674 122.645H333.63V140.151H341.674V122.645Z" fill="#E0E0E0"/>
<path d="M461.792 122.645H453.748V140.151H461.792V122.645Z" fill="#E0E0E0"/>
<path d="M453.515 44.1248L442.646 44.1836L443.048 118.596L453.918 118.537L453.515 44.1248Z" fill="#EBEBEB"/>
<path d="M470.509 57.9828L453.612 58.0742L453.939 118.382L470.835 118.29L470.509 57.9828Z" fill="#F5F5F5"/>
<path d="M470.39 69.6162C467.587 69.9154 464.765 70.0154 461.947 69.9154C459.126 70.0152 456.301 69.9153 453.493 69.6162C459.119 69.2321 464.765 69.2321 470.39 69.6162Z" fill="#E0E0E0"/>
<path d="M470.39 67.0892C467.586 67.3744 464.765 67.4706 461.947 67.3773C459.126 67.4703 456.302 67.3741 453.493 67.0892C459.119 66.6903 464.765 66.6903 470.39 67.0892Z" fill="#E0E0E0"/>
<path d="M470.39 109.238C464.765 109.622 459.119 109.622 453.493 109.238C459.119 108.839 464.765 108.839 470.39 109.238Z" fill="#E0E0E0"/>
<path d="M470.39 106.7C464.765 107.084 459.119 107.084 453.493 106.7C459.119 106.316 464.765 106.316 470.39 106.7Z" fill="#E0E0E0"/>
<path d="M462.224 101.171C462.058 101.171 461.925 95.0885 461.925 87.5874C461.925 80.0862 462.058 73.9922 462.224 73.9922C462.391 73.9922 462.512 80.0751 462.512 87.5874C462.512 95.0996 462.379 101.171 462.224 101.171Z" fill="#E0E0E0"/>
<path d="M488.971 72.8066H470.579V118.323H488.971V72.8066Z" fill="#EBEBEB"/>
<path d="M451.045 56.8521C451.045 57.4701 450.861 58.0742 450.518 58.588C450.175 59.1018 449.687 59.5023 449.116 59.7388C448.545 59.9753 447.917 60.0372 447.311 59.9166C446.704 59.7961 446.148 59.4985 445.711 59.0615C445.274 58.6245 444.976 58.0678 444.856 57.4617C444.735 56.8556 444.797 56.2273 445.033 55.6564C445.27 55.0854 445.67 54.5975 446.184 54.2541C446.698 53.9108 447.302 53.7275 447.92 53.7275C448.749 53.7275 449.544 54.0567 450.129 54.6427C450.715 55.2287 451.045 56.0234 451.045 56.8521Z" fill="#E0E0E0"/>
<path d="M448.884 65.4502H446.956V109.715H448.884V65.4502Z" fill="#E0E0E0"/>
<path d="M445.56 168.305C447.788 166.35 450.266 164.699 452.928 163.396L453.161 155.197L466.457 152.571L469.781 160.072C472.741 160.263 475.662 160.848 478.468 161.812L484.429 156.172L495.708 163.74L492.75 171.396C494.71 173.62 496.361 176.099 497.658 178.764L505.868 178.997L508.494 192.293L500.982 195.617C500.795 198.573 500.214 201.491 499.254 204.293L504.882 210.254L497.359 221.6L489.736 218.619C487.506 220.577 485.025 222.228 482.357 223.528L482.135 231.727L468.839 234.353L465.515 226.852C462.555 226.661 459.634 226.076 456.828 225.112L450.867 230.752L439.588 223.184L442.546 215.528C440.586 213.304 438.935 210.825 437.638 208.16L429.428 207.927L426.802 194.631L434.303 191.307C434.499 188.351 435.084 185.434 436.042 182.631L430.414 176.67L437.97 165.391L445.627 168.338L445.56 168.305ZM455.876 184.836C454.27 187.23 453.411 190.046 453.406 192.928C453.401 195.81 454.251 198.628 455.848 201.027C457.445 203.426 459.718 205.298 462.379 206.405C465.04 207.512 467.97 207.805 470.797 207.247C473.625 206.689 476.223 205.305 478.264 203.27C480.305 201.235 481.696 198.64 482.262 195.814C482.828 192.988 482.544 190.058 481.444 187.394C480.345 184.73 478.48 182.452 476.085 180.847C472.876 178.697 468.944 177.91 465.155 178.658C461.365 179.406 458.027 181.628 455.876 184.836Z" fill="#FF725E"/>
<path d="M384.343 162.998C385.595 162.238 386.944 161.653 388.354 161.258L389.174 157.292L395.877 157.17L396.841 161.103C398.263 161.453 399.631 161.993 400.908 162.71L404.298 160.494L409.129 165.159L407.024 168.616C407.782 169.868 408.367 171.217 408.763 172.627L412.73 173.458L412.852 180.161L408.918 181.125C408.56 182.544 408.02 183.911 407.312 185.191L409.528 188.582L404.863 193.402L401.406 191.296C400.152 192.053 398.803 192.642 397.395 193.047L396.564 197.014L389.861 197.124L388.897 193.191C387.477 192.842 386.109 192.305 384.831 191.595L381.44 193.811L376.62 189.158L378.725 185.69C377.962 184.439 377.373 183.089 376.975 181.679L373.008 180.859L372.897 174.156L376.831 173.192C377.176 171.77 377.713 170.402 378.426 169.125L376.21 165.735L380.864 160.904L384.332 163.009L384.343 162.998ZM387.911 171.928C386.923 172.952 386.261 174.245 386.009 175.644C385.756 177.044 385.924 178.486 386.491 179.79C387.058 181.094 387.999 182.201 389.195 182.97C390.391 183.739 391.789 184.137 393.21 184.112C394.632 184.087 396.015 183.641 397.183 182.831C398.352 182.021 399.254 180.882 399.775 179.559C400.297 178.236 400.414 176.788 400.113 175.398C399.811 174.009 399.105 172.739 398.082 171.751C397.403 171.095 396.601 170.578 395.722 170.232C394.843 169.886 393.904 169.716 392.96 169.732C392.015 169.749 391.083 169.951 390.217 170.328C389.35 170.705 388.567 171.249 387.911 171.928Z" fill="#455A64"/>
<path d="M387.911 171.928C388.29 171.465 388.743 171.068 389.251 170.754C390.643 169.853 392.302 169.462 393.949 169.646C395.085 169.759 396.179 170.139 397.14 170.754C398.24 171.476 399.127 172.478 399.711 173.657C400.035 174.29 400.256 174.971 400.365 175.673C400.487 176.407 400.487 177.156 400.365 177.889C400.162 179.452 399.463 180.909 398.37 182.044C397.272 183.171 395.844 183.919 394.293 184.183C393.559 184.305 392.811 184.305 392.077 184.183C391.372 184.096 390.684 183.902 390.038 183.607C388.835 183.065 387.801 182.207 387.047 181.125C386.239 179.982 385.781 178.629 385.728 177.23C385.675 175.832 386.029 174.448 386.747 173.247C387.042 172.734 387.416 172.27 387.855 171.873C387.855 171.873 387.423 172.349 386.869 173.336C386.1 174.737 385.82 176.355 386.072 177.934C386.26 179.092 386.735 180.185 387.453 181.114C388.171 182.042 389.109 182.777 390.182 183.252C390.797 183.531 391.451 183.714 392.121 183.795C392.814 183.911 393.522 183.911 394.215 183.795C395.682 183.547 397.031 182.836 398.064 181.765C399.097 180.694 399.76 179.32 399.955 177.845C400.065 177.151 400.065 176.445 399.955 175.751C399.855 175.085 399.653 174.439 399.356 173.834C398.922 172.952 398.309 172.169 397.557 171.536C396.805 170.902 395.929 170.432 394.986 170.154C394.043 169.876 393.052 169.796 392.076 169.921C391.101 170.045 390.161 170.37 389.318 170.876C388.376 171.474 387.955 171.962 387.911 171.928Z" fill="#455A64"/>
<path d="M384.343 162.997L384.121 162.875L383.457 162.499L380.842 160.947H380.919L376.299 165.789V165.667L378.515 168.991V169.047V169.113C377.81 170.384 377.281 171.745 376.942 173.158V173.235H376.864L372.931 174.221L373.041 174.066C373.086 176.179 373.13 178.413 373.174 180.769L373.041 180.614L377.019 181.434H377.119V181.534C377.536 182.963 378.147 184.327 378.936 185.589L378.991 185.678L378.936 185.767L376.842 189.235V189.013L381.662 193.667H381.429L384.819 191.451L384.908 191.384L385.019 191.44C386.284 192.142 387.636 192.675 389.041 193.024H389.152V193.146L390.116 197.079L389.916 196.924L396.62 196.802L396.42 196.968C396.686 195.716 396.963 194.365 397.251 193.002V192.88H397.373C398.761 192.482 400.09 191.904 401.329 191.163H401.439H401.539L405.007 193.268H404.752L409.406 188.448V188.703L407.19 185.312L407.124 185.201L407.179 185.102C407.887 183.839 408.42 182.486 408.763 181.08V180.969H408.874L412.819 180.005L412.664 180.204C412.664 177.911 412.586 175.684 412.553 173.501L412.708 173.678L408.741 172.847H408.63V172.748C408.239 171.351 407.661 170.013 406.913 168.77V168.681V168.593L409.018 165.136V165.346L404.198 160.67H404.398L401.007 162.886H400.93H400.852C399.584 162.178 398.228 161.642 396.819 161.291H396.742V161.213C396.398 159.784 396.088 158.499 395.8 157.28L395.911 157.369L389.207 157.457L389.296 157.38C388.963 158.964 388.686 160.26 388.454 161.346C387.398 161.641 386.374 162.038 385.396 162.532L384.675 162.909L384.432 163.03C384.502 162.974 384.576 162.922 384.653 162.875L385.362 162.465C386.338 161.951 387.362 161.535 388.42 161.224C388.642 160.116 388.897 158.842 389.218 157.258V157.18H389.296L395.999 157.036H396.099V157.125C396.398 158.344 396.719 159.629 397.074 161.058L396.974 160.958C398.41 161.308 399.793 161.848 401.085 162.565H400.93L404.309 160.349L404.42 160.283L404.509 160.371L409.34 165.014L409.439 165.113L409.373 165.235C408.686 166.343 407.999 167.507 407.279 168.692V168.515C408.043 169.779 408.635 171.139 409.04 172.559L408.907 172.437L412.874 173.257H413.018V173.401C413.062 175.617 413.107 177.852 413.151 180.105V180.26H412.996L409.063 181.224L409.207 181.08C408.857 182.521 408.312 183.907 407.589 185.201V185.035L409.805 188.415L409.894 188.559L409.783 188.67L405.129 193.5L405.007 193.611L404.874 193.534L401.406 191.428H401.617C400.353 192.2 398.988 192.793 397.561 193.19L397.706 193.035C397.429 194.398 397.14 195.75 396.886 197.002V197.168H396.719L390.016 197.279H389.85V197.124C389.517 195.761 389.185 194.42 388.886 193.179L389.03 193.323C387.594 192.969 386.211 192.425 384.919 191.705H385.119L381.728 193.921L381.595 194.01L381.484 193.899L376.676 189.246L376.565 189.135L376.642 189.013L378.748 185.556V185.733C377.927 184.487 377.282 183.134 376.831 181.711L376.953 181.833L372.986 181.002H372.864V180.869C372.864 178.52 372.787 176.271 372.753 174.166V174.044H372.875L376.809 173.091L376.709 173.191C377.067 171.758 377.615 170.379 378.338 169.091V169.224L376.122 165.823V165.756L376.177 165.69L380.864 160.892L383.423 162.487L384.077 162.897C384.168 162.924 384.257 162.957 384.343 162.997Z" fill="#455A64"/>
<path d="M407.6 363.534L384.731 360.022L383.745 346.094C379.131 344.092 374.805 341.484 370.881 338.339L358.072 343.879L344.377 325.22L353.518 314.683C351.679 309.993 350.476 305.077 349.94 300.068L336.932 294.949L340.444 272.08L354.361 271.094C356.366 266.482 358.974 262.156 362.117 258.23L356.577 245.422L375.235 231.727L385.761 240.868C390.453 239.034 395.368 237.831 400.376 237.289L405.528 224.226L428.397 227.738L429.383 241.654C433.996 243.659 438.321 246.267 442.247 249.41L455.067 243.87L468.817 262.596L459.676 273.122C461.51 277.813 462.71 282.728 463.244 287.736L476.252 292.855L472.728 315.78L458.801 316.755C456.797 321.367 454.188 325.693 451.045 329.619L456.585 342.438L437.882 356.111L427.345 346.97C422.654 348.805 417.739 350.005 412.73 350.538L407.6 363.534ZM384.764 359.967L407.567 363.479L412.686 350.482C417.703 349.951 422.626 348.747 427.322 346.903L437.859 356.044L456.496 342.372L450.956 329.574C454.103 325.647 456.712 321.317 458.712 316.699L472.628 315.724L476.13 292.922L463.144 287.78C462.612 282.767 461.408 277.848 459.565 273.155L468.706 262.629L455.056 244.026L442.258 249.566C438.333 246.401 434.003 243.774 429.383 241.754L428.408 227.838L405.594 224.336L400.487 237.333C395.475 237.875 390.557 239.078 385.861 240.912L375.335 231.771L356.732 245.422L362.272 258.219C359.101 262.144 356.474 266.479 354.46 271.105L340.544 272.091L337.043 294.894L350.039 300.013C350.557 305.034 351.742 309.964 353.563 314.672L344.422 325.198L358.072 343.79L370.87 338.25C374.8 341.398 379.134 344.006 383.756 346.006L384.764 359.967ZM407.456 318.084C406.187 318.082 404.921 317.986 403.667 317.796C400.051 317.235 396.604 315.882 393.572 313.833C390.541 311.783 388 309.089 386.131 305.943C384.263 302.797 383.113 299.277 382.765 295.634C382.416 291.992 382.878 288.317 384.116 284.874C385.353 281.43 387.337 278.303 389.925 275.717C392.513 273.13 395.641 271.147 399.085 269.911C402.529 268.674 406.204 268.215 409.846 268.565C413.488 268.915 417.008 270.066 420.154 271.936C424.398 274.464 427.79 278.203 429.895 282.673C432 287.142 432.72 292.139 431.965 297.021C431.215 301.91 429.021 306.463 425.665 310.096C422.309 313.728 417.943 316.275 413.129 317.408C411.271 317.856 409.367 318.083 407.456 318.084ZM392.764 273.266C388.846 276.156 385.866 280.136 384.195 284.71C382.524 289.283 382.236 294.247 383.368 298.982C384.891 305.375 388.889 310.901 394.484 314.347C400.078 317.794 406.812 318.879 413.206 317.364C416.778 316.515 420.116 314.884 422.979 312.587C425.843 310.29 428.16 307.386 429.764 304.084C431.368 300.782 432.217 297.165 432.252 293.494C432.287 289.824 431.505 286.191 429.964 282.86C428.423 279.528 426.161 276.581 423.342 274.23C420.522 271.88 417.215 270.185 413.661 269.269C410.106 268.353 406.392 268.239 402.788 268.934C399.183 269.629 395.778 271.116 392.819 273.288L392.764 273.266Z" fill="#E0E0E0"/>
<path d="M392.764 273.266C394.318 271.913 396.085 270.827 397.994 270.052C402.438 268.181 407.327 267.632 412.076 268.471C416.824 269.31 421.229 271.502 424.763 274.783C428.094 277.876 430.535 281.806 431.832 286.163C433.272 290.99 433.234 296.138 431.721 300.943C430.121 306.13 426.895 310.665 422.519 313.877C418.144 317.09 412.851 318.809 407.423 318.782C404.862 318.798 402.315 318.405 399.877 317.619C397.529 316.906 395.305 315.833 393.285 314.439C389.518 311.899 386.502 308.394 384.554 304.29C382.868 300.723 382.048 296.809 382.16 292.866C382.3 287.163 384.406 281.683 388.121 277.354C389.438 275.765 391.007 274.403 392.764 273.321C392.875 273.454 391.013 274.673 388.553 277.753C385.113 282.074 383.218 287.421 383.169 292.944C383.121 296.99 384.09 300.983 385.985 304.558C387.88 308.133 390.641 311.176 394.016 313.408C397.991 316.05 402.661 317.454 407.434 317.441C412.558 317.452 417.552 315.821 421.683 312.789C425.814 309.756 428.866 305.481 430.392 300.589C431.145 298.286 431.519 295.876 431.5 293.453C431.532 291.129 431.215 288.813 430.558 286.584C429.348 282.427 427.054 278.668 423.91 275.692C421.176 273.096 417.87 271.18 414.259 270.097C408.979 268.485 403.311 268.688 398.16 270.673C396.319 271.446 394.518 272.312 392.764 273.266Z" fill="#263238"/>
<path d="M385.828 240.834C385.578 240.68 385.345 240.502 385.13 240.302L383.102 238.607L375.124 231.848H375.413L356.854 245.643L356.975 245.211L362.593 257.997L362.693 258.219L362.538 258.418C359.411 262.329 356.821 266.64 354.837 271.238L354.715 271.493H354.438L340.499 272.512L340.965 272.091C339.857 279.282 338.749 286.916 337.508 294.938L337.164 294.34L350.128 299.447L350.46 299.58V299.935C351.004 304.899 352.203 309.768 354.028 314.416L354.172 314.76L353.928 315.037L344.787 325.596V324.81L358.593 343.479L357.795 343.269L370.593 337.729L370.969 337.563L371.291 337.817C375.174 340.958 379.459 343.567 384.033 345.573L384.41 345.74V346.15C384.72 350.515 385.052 355.28 385.396 360.088L384.808 359.446L407.744 362.803L406.979 363.246C408.597 359.135 410.303 354.703 412.098 350.249L412.254 349.839H412.686C417.623 349.305 422.466 348.117 427.09 346.305L427.5 346.15L427.821 346.427L438.358 355.59H437.483L456.119 341.928L455.887 342.77L450.347 329.962L450.18 329.574L450.446 329.242C453.587 325.366 456.195 321.088 458.202 316.522L458.369 316.134H458.778L472.717 315.159L472.097 315.735C473.308 307.935 474.486 300.319 475.631 292.888L476.03 293.597L463.044 288.456L462.679 288.323V287.935C462.15 282.974 460.965 278.104 459.155 273.454L459.022 273.11L459.266 272.822L468.44 262.296V263.039L454.801 244.369L455.454 244.546L442.635 250.086L442.358 250.208L442.114 250.02C438.227 246.878 433.938 244.27 429.361 242.264L429.095 242.142V241.865C428.752 236.801 428.441 232.236 428.153 227.926L428.508 228.314L405.528 224.569L405.871 224.369C403.788 229.544 402.082 233.798 400.664 237.333L400.608 237.466H400.476C396.719 237.842 393.008 238.584 389.396 239.682L386.725 240.535C386.438 240.652 386.142 240.745 385.839 240.812C386.112 240.662 386.397 240.536 386.692 240.435C387.268 240.203 388.143 239.859 389.329 239.46C392.946 238.262 396.678 237.441 400.464 237.012L400.276 237.156C401.65 233.599 403.301 229.333 405.306 224.126L405.395 223.882H405.65L428.519 227.294H428.84V227.627C429.162 231.937 429.494 236.491 429.871 241.566L429.594 241.167C434.262 243.193 438.64 245.831 442.613 249.011L442.092 248.934L454.878 243.394L455.277 243.216L455.532 243.571L469.249 262.174L469.526 262.562L469.216 262.917L460.086 273.476L460.186 272.844C462.053 277.595 463.278 282.573 463.831 287.647L463.432 287.115L476.44 292.268L476.928 292.456L476.839 292.977C475.709 300.408 474.549 308.023 473.36 315.824L473.282 316.367H472.739L458.801 317.364L459.377 316.954C457.342 321.634 454.688 326.02 451.488 329.995L451.588 329.286C453.427 333.504 455.274 337.769 457.128 342.083L457.349 342.604L456.895 342.936L438.258 356.62L437.804 356.953L437.383 356.576C433.889 353.547 430.373 350.497 426.835 347.424L427.555 347.546C422.814 349.427 417.843 350.668 412.774 351.235L413.362 350.781C411.6 355.213 409.86 359.645 408.243 363.789L408.032 364.31L407.478 364.221L384.631 360.709L384.077 360.62V360.066C383.734 355.257 383.401 350.493 383.102 346.127L383.512 346.704C378.831 344.661 374.445 342.001 370.471 338.792L371.169 338.892L358.349 344.432L357.884 344.587L357.563 344.166C352.832 337.685 348.2 331.369 343.912 325.508L343.613 325.098L343.945 324.721L353.12 314.195L353.009 314.815C351.161 310.062 349.953 305.084 349.419 300.013L349.785 300.5L336.799 295.359L336.378 295.193L336.444 294.75C337.696 286.739 338.893 279.105 340.012 271.914L340.067 271.504H340.477L354.416 270.562L354.017 270.839C356.068 266.186 358.729 261.827 361.928 257.875L361.873 258.307L356.333 245.477L356.222 245.211L356.455 245.045L375.169 231.472L375.313 231.361L375.446 231.483L383.202 238.363L385.196 240.169C385.42 240.378 385.631 240.6 385.828 240.834Z" fill="#263238"/>
<path d="M498.124 406.004C499.632 398.598 500.305 391.046 500.129 383.49C499.985 375.999 498.345 368.41 494.412 362.05C490.029 368.949 488.035 377.097 488.739 385.24C489.248 393.087 492.44 400.52 497.78 406.292" fill="#FF725E"/>
<path d="M488.473 426.037C488.573 417.982 488.473 409.838 486.6 402.016C484.728 394.193 480.772 386.614 474.412 381.706C472.079 389.979 472.314 398.766 475.088 406.902C477.869 414.979 481.592 421.007 488.495 426.037" fill="#FF725E"/>
<path d="M476.263 449.848C477.371 442.646 478.235 435.355 477.459 428.12C476.684 420.885 474.135 413.65 468.961 408.486C465.885 415.614 465.046 423.508 466.557 431.123C468.086 438.668 470.689 444.518 476.263 449.848Z" fill="#FF725E"/>
<path d="M467.388 466.867C467 458.69 466.424 450.446 464.008 442.635C461.593 434.824 457.15 427.378 450.369 422.802C448.5 431.324 449.273 440.214 452.585 448.286C455.909 456.297 460.053 462.18 467.343 466.856" fill="#FF725E"/>
<path d="M454.18 486.944C454.435 479.443 454.546 471.864 452.928 464.54C451.311 457.216 447.82 450.081 441.97 445.383C439.633 453.037 439.676 461.221 442.092 468.85C444.519 476.429 447.865 482.146 454.18 486.944Z" fill="#FF725E"/>
<path d="M443.2 504.14C443.466 496.639 443.566 489.061 441.959 481.737C440.352 474.413 437.671 467.975 431.832 463.277C429.483 470.867 428.696 478.479 431.123 486.047C433.549 493.614 436.884 499.343 443.2 504.14Z" fill="#FF725E"/>
<path d="M488.506 425.816C493.571 422.408 499.019 419.608 504.738 417.473C509.212 415.701 513.874 414.444 518.633 413.728C523.418 413.015 528.307 413.668 532.738 415.611C527.158 421.432 520.001 425.498 512.144 427.311C504.287 429.124 496.072 428.604 488.506 425.816Z" fill="#FF725E"/>
<path d="M454.158 487.077C458.279 484.303 462.712 482.023 467.366 480.285C471.004 478.842 474.796 477.819 478.667 477.238C482.557 476.659 486.532 477.189 490.135 478.767C485.596 483.501 479.775 486.808 473.385 488.284C466.995 489.76 460.313 489.341 454.158 487.077Z" fill="#FF725E"/>
<path d="M445.549 500.716C449.981 498.988 455.931 495.42 460.651 494.821C464.517 494.224 468.439 494.068 472.34 494.356C476.265 494.662 480.025 496.067 483.188 498.411C477.701 501.998 471.294 503.922 464.74 503.951C458.224 503.951 451 504.262 445.549 500.705" fill="#FF725E"/>
<path d="M478.069 448.364C483.135 444.951 488.587 442.15 494.312 440.02C498.782 438.244 503.44 436.984 508.195 436.264C512.982 435.559 517.87 436.216 522.3 438.159C516.716 443.974 509.559 448.036 501.704 449.848C493.849 451.66 485.636 451.144 478.069 448.364Z" fill="#FF725E"/>
<path d="M464.019 472.651C468.615 468.629 473.669 465.163 479.077 462.325C483.286 460.002 487.747 458.169 492.373 456.862C497.029 455.55 501.961 455.581 506.6 456.951C501.799 463.429 495.211 468.365 487.646 471.154C480.08 473.942 471.865 474.463 464.008 472.651" fill="#FF725E"/>
<path d="M497.082 408.509C505.346 407.861 513.334 405.24 520.375 400.865C527.416 396.49 533.305 390.49 537.546 383.368C531.463 384.133 525.358 385.584 520.062 388.609C511.198 393.739 505.27 402.381 497.082 408.553" fill="#FF725E"/>
<path d="M506.356 389.673C512.415 386.769 517.192 381.734 519.774 375.531C522.355 369.327 522.56 362.39 520.35 356.045C515.001 359.765 510.836 364.947 508.355 370.972C505.873 376.996 505.179 383.608 506.356 390.016" fill="#FF725E"/>
<path d="M442.17 505.525C442.233 505.407 442.303 505.292 442.38 505.182C442.535 504.927 442.757 504.606 443.023 504.196C443.632 503.309 444.485 502.046 445.571 500.44C446.657 498.833 448.042 496.827 449.549 494.478C451.056 492.13 452.873 489.493 454.69 486.49C456.507 483.487 458.612 480.252 460.717 476.695C462.823 473.138 465.072 469.327 467.365 465.294C471.953 457.205 476.883 448.242 481.769 438.702C491.653 419.622 499.941 402.027 505.891 389.274L513.004 374.161C513.835 372.41 514.478 371.025 514.932 370.061C515.142 369.618 515.309 369.263 515.442 368.953C515.575 368.643 515.63 368.599 515.63 368.599C515.6 368.729 515.556 368.855 515.497 368.975C515.386 369.252 515.231 369.607 515.032 370.083L513.215 374.238C511.619 377.828 509.292 383.036 506.356 389.429C500.506 402.237 492.262 419.866 482.379 438.957C477.448 448.497 472.507 457.46 467.875 465.549C465.537 469.571 463.321 473.404 461.15 476.928C458.978 480.451 456.95 483.731 455.056 486.7C453.161 489.67 451.388 492.318 449.837 494.645C448.286 496.971 446.923 498.955 445.771 500.561L443.145 504.251L442.447 505.204C442.269 505.426 442.181 505.536 442.17 505.525Z" fill="#263238"/>
<path d="M60.0758 431.578C57.1729 425.106 54.9989 418.331 53.594 411.379C52.0033 404.492 52.2786 397.305 54.3917 390.56C59.8287 395.972 63.3331 403.023 64.3637 410.625C65.4952 417.887 64.103 425.318 60.4192 431.677" fill="#FF725E"/>
<path d="M73.0615 447.931C71.2998 440.574 69.7375 433.106 69.804 425.538C69.8705 417.971 72.02 410.237 76.7955 404.42C80.6504 411.531 82.2466 419.647 81.3715 427.688C80.4962 435.654 78.3356 441.948 73.0615 447.986" fill="#FF725E"/>
<path d="M89.1608 467.233C86.7121 460.862 84.3631 454.369 83.6208 447.588C82.8784 440.807 83.7205 433.638 87.3436 427.854C91.6233 433.748 94.0078 440.805 94.18 448.087C94.3462 455.311 93.1606 461.205 89.1608 467.233Z" fill="#FF725E"/>
<path d="M100.828 480.95C99.4984 473.393 98.3239 465.715 98.9222 458.058C99.5206 450.402 102.047 442.679 107.31 437.084C110.761 444.526 111.867 452.843 110.479 460.928C109.094 468.939 106.512 475.188 100.795 480.972" fill="#FF725E"/>
<path d="M117.049 496.606C115.254 489.792 113.592 482.867 113.559 475.831C113.526 468.795 115.254 461.538 119.631 456.031C123.359 462.556 125.013 470.061 124.373 477.549C123.719 484.972 121.825 490.845 117.049 496.606Z" fill="#FF725E"/>
<path d="M72.984 447.732C67.6325 445.652 62.0537 444.213 56.364 443.444C51.9017 442.742 47.3738 442.552 42.8685 442.879C38.3417 443.219 34.0024 444.828 30.3481 447.521C36.6583 451.699 44.0505 453.944 51.618 453.981C59.1856 454.019 66.5995 451.847 72.9507 447.732" fill="#FF725E"/>
<path d="M117.093 496.717C112.748 495.029 108.218 493.861 103.598 493.238C99.9678 492.662 96.2835 492.506 92.6177 492.772C88.9342 493.042 85.4031 494.352 82.4352 496.551C87.5694 499.948 93.5832 501.773 99.7395 501.803C105.896 501.832 111.927 500.065 117.093 496.717Z" fill="#FF725E"/>
<path d="M87.1996 466.213C81.8475 464.138 76.2688 462.702 70.5796 461.936C66.1211 461.234 61.5969 461.044 57.0952 461.371C52.5694 461.708 48.2301 463.313 44.5748 466.003C50.885 470.18 58.2772 472.425 65.8447 472.463C73.4123 472.5 80.8263 470.328 87.1774 466.213" fill="#FF725E"/>
<path d="M105.072 485.548C100.036 482.817 94.6953 480.69 89.1608 479.211C84.8262 477.974 80.366 477.231 75.8648 476.995C71.3308 476.762 66.823 477.81 62.8568 480.019C68.595 484.952 75.6472 488.103 83.1494 489.087C90.6515 490.071 98.2778 488.845 105.094 485.559" fill="#FF725E"/>
<path d="M61.5605 433.661C53.8585 434.772 46.0022 434.02 38.651 431.468C31.2997 428.915 24.668 424.637 19.3124 418.991C25.0297 418.244 30.8386 418.647 36.3978 420.176C45.572 423.035 52.7851 429.727 61.5605 433.661Z" fill="#FF725E"/>
<path d="M49.2063 418.314C43.0573 416.912 37.6411 413.292 33.9941 408.147C30.3472 403.002 28.7255 396.692 29.4396 390.426C35.0949 392.727 39.9683 396.608 43.4774 401.604C46.9865 406.6 48.983 412.502 49.2284 418.602" fill="#FF725E"/>
<path d="M120.96 500.982C120.864 500.918 120.775 500.844 120.694 500.76L119.963 500.084L117.204 497.492C116.008 496.384 114.545 494.921 112.894 493.237C111.243 491.553 109.326 489.68 107.354 487.52C99.1106 478.977 88.1192 466.8 76.585 452.839C65.0507 438.879 55.0233 425.893 47.8545 416.442C44.2646 411.71 41.3949 407.866 39.4226 405.206L37.2066 402.126L36.6305 401.317C36.5577 401.231 36.4979 401.133 36.4532 401.029L36.6748 401.273L37.2953 402.049L39.6442 405.062C41.694 407.722 44.6192 411.522 48.2312 416.142C55.4776 425.538 65.5382 438.48 77.0392 452.418C88.5403 466.357 99.4984 478.589 107.653 487.198C109.67 489.414 111.565 491.276 113.193 492.971C114.822 494.666 116.251 496.107 117.426 497.281L120.118 500.007L120.805 500.716L120.96 500.982Z" fill="#263238"/>
<path d="M447.211 505.525L461.249 356.887C461.52 354.115 461.215 351.317 460.353 348.668C459.49 346.02 458.09 343.578 456.239 341.497C454.387 339.416 452.126 337.74 449.596 336.575C447.066 335.41 444.323 334.781 441.538 334.727L285.21 331.624C280.062 331.52 275.068 333.385 271.248 336.838C267.428 340.292 265.071 345.073 264.657 350.205L252.679 505.458L447.211 505.525Z" fill="#455A64"/>
<path d="M425.029 505.491C425.074 505.321 425.104 505.147 425.117 504.971C425.117 504.594 425.217 504.084 425.295 503.419C425.439 502.034 425.66 500.04 425.926 497.48C426.447 492.295 427.2 484.838 428.142 475.631C429.948 457.138 432.441 431.654 435.189 403.5C437.283 381.562 439.233 361.252 440.807 344.721C440.807 343.893 440.785 343.073 440.74 342.261C440.755 341.448 440.669 340.637 440.485 339.845C440.066 338.305 439.161 336.941 437.904 335.956C436.707 335.027 435.251 334.493 433.738 334.427L429.627 334.35L415.921 334.139L407.157 334.028H404.863C404.342 334.028 404.077 334.028 404.077 334.028C404.077 334.028 404.342 334.028 404.863 334.084L407.157 334.172L415.921 334.416L429.616 334.749L433.716 334.859C435.171 334.927 436.566 335.459 437.698 336.376C438.83 337.292 439.64 338.547 440.009 339.956C440.183 340.715 440.261 341.493 440.242 342.272C440.242 343.07 440.242 343.878 440.297 344.698C438.69 361.23 436.707 381.539 434.569 403.478C431.887 431.632 429.461 457.127 427.71 475.62C426.857 484.838 426.17 492.24 425.694 497.492C425.472 500.051 425.306 502.057 425.184 503.442C425.129 504.106 425.095 504.616 425.062 504.993C425.04 505.158 425.029 505.325 425.029 505.491Z" fill="#263238"/>
<path d="M247.804 245.133C246.987 244.299 245.979 243.676 244.868 243.316H245.079C244.877 243.275 244.674 243.245 244.469 243.228C244.097 243.129 243.709 243.106 243.328 243.161C242.947 243.217 242.582 243.348 242.253 243.549C241.02 244.021 240.008 244.938 239.417 246.119C238.963 247.167 238.804 248.318 238.959 249.449C239.113 250.58 239.574 251.647 240.292 252.535C240.816 253.344 241.574 253.975 242.464 254.346C243.354 254.716 244.335 254.808 245.279 254.611C246.222 254.413 247.084 253.934 247.75 253.237C248.417 252.54 248.857 251.658 249.012 250.707C249.293 249.751 249.33 248.74 249.119 247.766C248.908 246.792 248.456 245.887 247.804 245.133Z" fill="#455A64"/>
<path d="M238.918 218.187C235.209 217.171 231.799 215.276 228.977 212.663C226.155 210.049 224.005 206.794 222.708 203.174C221.464 199.519 221.105 195.622 221.662 191.802C222.219 187.982 223.675 184.349 225.91 181.202C221.323 182.376 216.758 178.111 215.816 173.446C214.874 168.781 216.536 163.95 218.309 159.507C222.365 149.369 227.439 139.198 235.893 132.384C244.347 125.569 256.945 122.977 266.075 128.838C266.153 124.86 270.817 122.866 274.695 122.19C291.603 119.398 309.708 123.83 323.026 134.732C336.344 145.635 344.488 162.975 343.691 180.305C349.43 189.301 345.751 202.974 336.3 207.805C337.979 218.239 336.023 228.933 330.76 238.098C325.464 247.175 317.175 254.128 307.315 257.765" fill="#FF725E"/>
<path d="M243.937 208.426C244.968 193.612 254.906 175.507 269.654 177.169L315.658 189.135C317.827 189.371 319.828 190.413 321.265 192.055C322.701 193.697 323.469 195.819 323.414 197.999L317.675 309.132L317.996 309.198C317.996 309.198 307.348 340.444 277 330.738C270.961 328.81 268.236 322.195 267.028 315.392H266.718C266.718 314.583 266.718 313.841 266.718 313.065C266.148 307.997 266.111 302.884 266.607 297.808C266.607 288.833 266.607 285.155 266.607 285.243C266.607 285.332 247.704 281.919 243.948 257.255C242.032 245.001 242.785 224.924 243.937 208.426Z" fill="#B78876"/>
<path d="M252.148 224.137C252.132 224.963 252.442 225.763 253.01 226.363C253.577 226.964 254.358 227.318 255.183 227.35C255.59 227.391 256 227.35 256.39 227.228C256.779 227.106 257.14 226.907 257.451 226.642C257.762 226.376 258.015 226.051 258.197 225.686C258.378 225.32 258.484 224.921 258.507 224.514C258.52 223.69 258.211 222.894 257.646 222.294C257.082 221.694 256.306 221.338 255.483 221.3C255.076 221.261 254.666 221.304 254.276 221.426C253.886 221.548 253.525 221.747 253.214 222.012C252.903 222.277 252.648 222.601 252.465 222.966C252.282 223.331 252.174 223.729 252.148 224.137Z" fill="#263238"/>
<path d="M248.192 218.919C248.58 219.34 250.995 217.578 254.408 217.611C257.821 217.645 260.291 219.362 260.668 218.952C260.845 218.764 260.458 218.021 259.372 217.224C257.907 216.188 256.157 215.634 254.364 215.639C252.589 215.621 250.854 216.168 249.411 217.201C248.391 217.988 248.037 218.742 248.192 218.919Z" fill="#263238"/>
<path d="M285.011 224.702C284.996 225.529 285.305 226.328 285.873 226.929C286.44 227.53 287.221 227.884 288.047 227.916C288.453 227.957 288.863 227.915 289.253 227.793C289.643 227.671 290.004 227.472 290.314 227.207C290.625 226.942 290.879 226.617 291.06 226.251C291.242 225.885 291.347 225.487 291.371 225.079C291.38 224.256 291.07 223.462 290.506 222.862C289.942 222.263 289.168 221.906 288.346 221.866C287.939 221.825 287.528 221.866 287.138 221.988C286.747 222.11 286.386 222.309 286.074 222.574C285.763 222.839 285.508 223.164 285.325 223.53C285.143 223.895 285.036 224.294 285.011 224.702Z" fill="#263238"/>
<path d="M281.709 219.782C282.108 220.203 284.523 218.441 287.925 218.475C291.326 218.508 293.819 220.225 294.185 219.815C294.373 219.627 293.975 218.885 292.889 218.087C291.425 217.05 289.674 216.496 287.881 216.502C286.109 216.485 284.378 217.032 282.939 218.065C281.886 218.851 281.521 219.605 281.709 219.782Z" fill="#263238"/>
<path d="M269.178 244.967C269.178 244.779 267.083 244.402 263.638 243.937C262.773 243.837 261.942 243.66 261.809 243.061C261.735 242.163 261.944 241.264 262.408 240.491C263.239 238.386 264.103 236.192 265.023 233.843C268.657 224.436 271.294 216.691 270.917 216.547C270.54 216.403 267.283 223.915 263.649 233.322C262.773 235.649 261.931 237.854 261.133 239.97C260.581 241.017 260.413 242.224 260.657 243.383C260.783 243.691 260.978 243.966 261.225 244.188C261.472 244.411 261.767 244.575 262.086 244.668C262.567 244.8 263.062 244.871 263.56 244.879C267.028 245.133 269.166 245.167 269.178 244.967Z" fill="#263238"/>
<path d="M266.552 285.277C278.174 285.534 289.64 282.557 299.67 276.679C299.67 276.679 291.537 293.587 266.84 291.083L266.552 285.277Z" fill="#AA6550"/>
<path d="M270.563 253.189C271.222 252.379 272.077 251.751 273.046 251.364C274.015 250.976 275.067 250.841 276.103 250.973C276.855 251.042 277.585 251.265 278.248 251.627C278.911 251.989 279.493 252.483 279.958 253.078C280.408 253.648 280.673 254.342 280.716 255.067C280.76 255.792 280.58 256.513 280.202 257.133C279.653 257.732 278.941 258.156 278.153 258.353C277.365 258.55 276.536 258.511 275.77 258.241C274.167 257.655 272.695 256.759 271.438 255.604C271.057 255.331 270.73 254.989 270.474 254.596C270.343 254.409 270.272 254.187 270.272 253.959C270.272 253.731 270.343 253.508 270.474 253.322" fill="#AA6550"/>
<path d="M279.216 247.394C278.662 247.394 278.629 251.061 275.438 253.665C272.247 256.269 268.324 255.881 268.291 256.347C268.236 256.579 269.166 257.078 270.828 257.133C272.994 257.178 275.105 256.456 276.789 255.095C278.413 253.793 279.463 251.908 279.715 249.843C279.848 248.291 279.438 247.372 279.216 247.394Z" fill="#263238"/>
<path d="M280.224 213.844C280.557 214.775 283.958 214.354 287.98 214.863C292.002 215.373 295.204 216.492 295.736 215.661C295.98 215.262 295.426 214.387 294.13 213.445C292.404 212.321 290.438 211.619 288.39 211.395C286.345 211.134 284.267 211.366 282.329 212.071C280.823 212.647 280.08 213.368 280.224 213.844Z" fill="#263238"/>
<path d="M249.544 209.068C250.142 209.844 252.491 209.068 255.316 209.068C258.142 209.068 260.524 209.622 261.078 208.813C261.322 208.425 260.956 207.65 259.97 206.907C258.588 205.992 256.951 205.538 255.294 205.611C253.634 205.623 252.018 206.154 250.674 207.129C249.621 207.894 249.3 208.691 249.544 209.068Z" fill="#263238"/>
<path d="M307.869 221.3C307.753 219.838 307.531 218.386 307.204 216.957C306.779 215.3 306.106 213.716 305.21 212.259C304.036 210.319 302.502 208.623 300.689 207.262C298.341 205.482 295.584 204.32 292.67 203.885C289.756 203.449 286.779 203.753 284.014 204.769C282.424 205.338 280.929 206.145 279.582 207.162C278.149 208.2 276.895 209.465 275.87 210.907C273.647 213.914 272.447 217.555 272.447 221.295C272.447 225.034 273.647 228.675 275.87 231.682C276.895 233.124 278.149 234.389 279.582 235.427C280.929 236.444 282.424 237.251 284.014 237.82C286.969 238.898 290.159 239.169 293.254 238.607C295.96 238.099 298.507 236.961 300.689 235.283C302.502 233.922 304.036 232.225 305.21 230.286C306.108 228.83 306.781 227.246 307.204 225.588C307.53 224.162 307.752 222.714 307.869 221.256C307.881 221.351 307.881 221.448 307.869 221.544C307.869 221.765 307.869 222.042 307.869 222.397C307.87 222.857 307.833 223.317 307.758 223.771C307.689 224.402 307.578 225.027 307.426 225.643C307.026 227.335 306.373 228.957 305.487 230.452C304.322 232.452 302.779 234.206 300.944 235.615C298.546 237.466 295.719 238.681 292.726 239.145C289.733 239.61 286.671 239.311 283.825 238.275C282.18 237.698 280.633 236.873 279.238 235.826C278.513 235.288 277.825 234.704 277.177 234.075C276.533 233.422 275.936 232.722 275.393 231.981C273.092 228.877 271.849 225.115 271.849 221.25C271.849 217.386 273.092 213.624 275.393 210.519C275.936 209.779 276.533 209.079 277.177 208.425C277.825 207.797 278.513 207.212 279.238 206.675C280.633 205.628 282.18 204.802 283.825 204.226C286.872 203.124 290.16 202.864 293.343 203.472C295.869 203.949 298.264 204.961 300.366 206.44C302.468 207.919 304.229 209.832 305.531 212.048C306.417 213.544 307.071 215.165 307.47 216.857C307.621 217.473 307.732 218.099 307.802 218.73C307.877 219.184 307.914 219.643 307.913 220.103C307.913 220.458 307.913 220.735 307.913 220.957C307.915 221.073 307.9 221.188 307.869 221.3Z" fill="#263238"/>
<path d="M336.189 209.102C336.14 208.993 336.106 208.877 336.09 208.758C336.023 208.503 335.946 208.171 335.857 207.75C335.768 207.329 335.646 206.742 335.469 206.099C335.292 205.456 335.081 204.703 334.86 203.883C333.425 199.188 331.348 194.714 328.688 190.587C324.743 184.466 319.679 179.144 313.763 174.898C306.469 169.764 298.193 166.192 289.454 164.405C280.706 162.591 271.711 162.291 262.862 163.519C255.634 164.385 248.58 166.347 241.943 169.336C239.41 170.508 236.975 171.882 234.663 173.446C232.925 174.639 231.27 175.95 229.711 177.369L228.026 178.953L226.918 180.205L226.209 180.959C226.13 181.053 226.041 181.138 225.943 181.213C226.006 181.109 226.08 181.013 226.165 180.925L226.83 180.128L227.938 178.842L229.589 177.202C231.132 175.748 232.776 174.404 234.508 173.18C236.823 171.579 239.265 170.171 241.81 168.97C248.474 165.894 255.576 163.875 262.862 162.987C271.756 161.725 280.802 162.014 289.598 163.84C298.411 165.648 306.754 169.266 314.096 174.466C320.053 178.762 325.137 184.155 329.076 190.354C331.727 194.523 333.761 199.054 335.115 203.805L335.68 206.021C335.846 206.675 335.923 207.24 336.012 207.695C336.101 208.149 336.145 208.459 336.189 208.714C336.21 208.842 336.21 208.973 336.189 209.102Z" fill="#263238"/>
<path d="M342.184 185.279C342.15 185.198 342.131 185.112 342.128 185.024C342.128 184.814 342.128 184.57 342.029 184.26C341.962 183.595 341.807 182.62 341.552 181.368C340.8 177.854 339.523 174.474 337.763 171.341C335.141 166.696 331.742 162.536 327.713 159.042C322.753 154.786 317.326 151.106 311.536 148.073C301.086 142.411 290.214 137.566 279.017 133.58C274.718 132.051 271.194 130.921 268.756 130.167L265.92 129.303L265.2 129.07C265.034 129.07 264.945 128.982 264.956 128.971C264.967 128.96 265.045 128.971 265.211 128.971L265.953 129.148C266.607 129.314 267.571 129.558 268.801 129.913C271.261 130.6 274.795 131.663 279.127 133.148C290.394 137.041 301.319 141.858 311.791 147.552C317.618 150.606 323.073 154.324 328.046 158.632C332.096 162.182 335.497 166.412 338.095 171.13C339.842 174.311 341.076 177.747 341.752 181.313C341.933 182.28 342.059 183.256 342.128 184.238C342.128 184.548 342.128 184.803 342.128 185.002C342.163 185.091 342.182 185.184 342.184 185.279Z" fill="#263238"/>
<path d="M266.297 184.204C266.297 184.204 289.465 183.861 307.005 210.01C318.561 227.25 320.999 248.889 320.999 248.889L329.94 207.705L323.292 188.869L307.282 179.817L276.9 178.11L265.432 183.783" fill="#FF725E"/>
<path d="M311.691 186.343C274.795 177.479 245.289 189.667 239.882 218.619L229.976 202.454L251.571 176.46L272.623 170.986L314.938 177.424L311.691 186.343Z" fill="#FF725E"/>
<path d="M335.547 183.839C335.502 183.725 335.472 183.606 335.458 183.485C335.458 183.219 335.358 182.875 335.281 182.443C335.206 181.875 335.095 181.313 334.948 180.759C334.771 180.094 334.627 179.33 334.328 178.543C333.679 176.498 332.825 174.523 331.78 172.648C330.389 170.174 328.712 167.872 326.782 165.79C324.447 163.26 321.808 161.027 318.927 159.142C315.61 157.001 312.036 155.289 308.29 154.045C300.379 151.353 291.116 150.4 281.487 150.599C271.859 150.799 262.651 151.707 254.552 153.846C250.734 154.835 247.023 156.197 243.472 157.912C240.378 159.418 237.458 161.257 234.763 163.397C230.819 166.466 227.511 170.275 225.024 174.61C224.592 175.385 224.215 176.072 223.916 176.693C223.617 177.313 223.373 177.801 223.207 178.255C223.04 178.709 222.907 178.986 222.797 179.241C222.686 179.496 222.653 179.573 222.642 179.562C223.177 177.802 223.902 176.104 224.802 174.499C227.236 170.086 230.528 166.206 234.486 163.086C237.188 160.919 240.124 159.061 243.239 157.546C246.815 155.792 250.556 154.396 254.408 153.38C262.552 151.164 271.803 150.3 281.476 150.056C291.149 149.813 300.479 150.832 308.456 153.58C312.243 154.845 315.851 156.592 319.193 158.776C322.095 160.69 324.745 162.961 327.082 165.535C329.015 167.652 330.689 169.991 332.068 172.504C333.097 174.408 333.925 176.413 334.538 178.488C334.772 179.237 334.964 179.999 335.115 180.77C335.251 181.331 335.343 181.901 335.392 182.476C335.447 182.92 335.491 183.263 335.525 183.584C335.538 183.669 335.546 183.754 335.547 183.839Z" fill="#263238"/>
<path d="M242.652 208.769C242.132 208.731 241.619 208.63 241.123 208.47C239.764 208.036 238.484 207.385 237.334 206.542C235.647 205.252 234.213 203.664 233.101 201.855C231.751 199.64 230.753 197.229 230.143 194.708C229.117 190.124 229.064 185.376 229.988 180.77C230.258 179.375 230.663 178.01 231.195 176.692C231.373 176.227 231.561 175.883 231.672 175.651C231.783 175.418 231.871 175.296 231.882 175.307C231.248 177.115 230.748 178.966 230.386 180.847C229.598 185.401 229.707 190.064 230.708 194.575C231.309 197.035 232.264 199.394 233.544 201.578C234.604 203.348 235.97 204.916 237.577 206.209C239.11 207.346 240.827 208.212 242.652 208.769Z" fill="#FAFAFA"/>
<path d="M320.722 185.379L320.478 185.301L319.791 185.002L318.683 184.515L317.132 183.927C313.831 182.709 310.399 181.883 306.905 181.468C301.722 180.847 296.482 180.869 291.304 181.534C288.379 181.877 285.332 182.431 282.185 183.074C279.039 183.717 275.814 184.503 272.568 185.512C259.471 189.301 249.378 197.556 244.868 205.168C243.045 208.175 241.674 211.434 240.802 214.84C240.48 216.048 240.292 216.99 240.159 217.644C240.093 217.932 240.048 218.176 240.004 218.375C239.988 218.459 239.961 218.541 239.926 218.619C239.909 218.535 239.909 218.448 239.926 218.364C239.926 218.164 239.993 217.921 240.037 217.622C240.167 216.667 240.349 215.72 240.58 214.785C241.367 211.325 242.691 208.009 244.502 204.957C249.023 197.201 259.217 188.78 272.435 185.013C275.759 184.005 278.95 183.229 282.108 182.576C285.266 181.922 288.324 181.39 291.271 181.069C296.491 180.404 301.774 180.404 306.994 181.069C310.507 181.528 313.949 182.421 317.243 183.728L318.783 184.37L319.891 184.913L320.555 185.257C320.655 185.323 320.733 185.368 320.722 185.379Z" fill="#263238"/>
<path d="M272.435 185.434C272.704 185.405 272.975 185.405 273.244 185.434C274.01 185.492 274.772 185.592 275.526 185.733C278.311 186.268 281.012 187.169 283.559 188.415C290.03 191.484 298.107 197.678 304.545 206.553C307.525 210.752 310.139 215.201 312.356 219.849C314.242 223.591 315.91 227.438 317.353 231.372C318.339 234.017 319.128 236.732 319.713 239.493C319.902 240.48 320.035 241.244 320.09 241.765C320.141 242.028 320.167 242.295 320.168 242.563C320.075 242.312 320.011 242.052 319.979 241.787C319.891 241.266 319.724 240.513 319.492 239.571C318.822 236.84 317.982 234.153 316.977 231.527C315.482 227.635 313.78 223.825 311.88 220.115C309.657 215.526 307.063 211.128 304.124 206.963C298.729 199.398 291.642 193.198 283.426 188.858C280.919 187.594 278.266 186.645 275.526 186.032C274.551 185.833 273.798 185.689 273.31 185.622C273.013 185.589 272.72 185.526 272.435 185.434Z" fill="#263238"/>
<path d="M266.042 221.301C265.933 219.838 265.711 218.386 265.377 216.958C264.952 215.3 264.279 213.717 263.383 212.26C262.209 210.32 260.675 208.624 258.862 207.263C256.68 205.585 254.133 204.446 251.427 203.939C248.332 203.376 245.143 203.648 242.187 204.725C240.597 205.294 239.102 206.101 237.755 207.118C236.322 208.156 235.068 209.421 234.043 210.864C231.826 213.873 230.631 217.513 230.631 221.251C230.631 224.989 231.826 228.629 234.043 231.639C235.068 233.081 236.322 234.346 237.755 235.384C239.102 236.401 240.597 237.208 242.187 237.777C245.146 238.856 248.339 239.128 251.438 238.564C253.899 238.099 256.234 237.122 258.292 235.696C260.349 234.27 262.084 232.427 263.383 230.287C264.281 228.831 264.954 227.247 265.377 225.589C265.71 224.164 265.932 222.716 266.042 221.257C266.06 221.352 266.06 221.449 266.042 221.545C266.042 221.766 266.042 222.043 266.042 222.398C266.042 222.873 266.001 223.348 265.92 223.816C265.851 224.447 265.74 225.072 265.588 225.689C265.203 227.366 264.568 228.976 263.704 230.464C262.539 232.464 260.996 234.217 259.161 235.627C256.763 237.478 253.937 238.692 250.944 239.157C247.951 239.622 244.889 239.323 242.043 238.287C240.397 237.71 238.85 236.884 237.455 235.838C236.731 235.3 236.042 234.715 235.395 234.087C234.75 233.433 234.154 232.733 233.611 231.993C231.309 228.889 230.066 225.127 230.066 221.262C230.066 217.398 231.309 213.635 233.611 210.531C234.154 209.791 234.75 209.091 235.395 208.437C236.042 207.809 236.731 207.224 237.455 206.686C238.85 205.64 240.397 204.814 242.043 204.238C246.002 202.804 250.338 202.805 254.297 204.24C258.255 205.676 261.584 208.455 263.704 212.093C264.59 213.589 265.244 215.21 265.643 216.902C265.794 217.518 265.905 218.144 265.975 218.775C266.05 219.229 266.087 219.688 266.086 220.149C266.086 220.503 266.086 220.78 266.086 221.002C266.089 221.103 266.074 221.204 266.042 221.301Z" fill="#263238"/>
<path d="M321.752 243.76C320.951 242.927 319.958 242.303 318.86 241.943H319.082C318.878 241.893 318.67 241.86 318.461 241.843C318.089 241.743 317.7 241.721 317.319 241.778C316.937 241.835 316.572 241.971 316.245 242.175C315.017 242.652 314.01 243.568 313.42 244.746C312.964 245.793 312.804 246.945 312.958 248.076C313.113 249.208 313.575 250.275 314.295 251.161C314.818 251.972 315.574 252.604 316.464 252.976C317.353 253.348 318.335 253.441 319.278 253.242C320.222 253.044 321.083 252.565 321.749 251.867C322.414 251.169 322.852 250.285 323.004 249.333C323.283 248.374 323.314 247.36 323.095 246.385C322.876 245.411 322.414 244.508 321.752 243.76Z" fill="#455A64"/>
<path d="M251.605 197.434C251.214 197.296 250.842 197.11 250.497 196.88C250.081 196.652 249.682 196.396 249.3 196.116C248.779 195.772 248.276 195.402 247.793 195.008C246.518 194.003 245.332 192.891 244.248 191.684C242.923 190.191 241.736 188.582 240.702 186.875C239.697 185.148 238.848 183.335 238.165 181.457C237.62 179.921 237.205 178.342 236.924 176.737C236.78 176.061 236.735 175.429 236.669 174.886C236.603 174.42 236.569 173.95 236.569 173.479C236.524 173.078 236.524 172.673 236.569 172.271C236.68 172.271 236.746 173.978 237.3 176.703C237.637 178.274 238.085 179.818 238.641 181.324C239.338 183.157 240.186 184.928 241.178 186.62C242.195 188.296 243.347 189.886 244.624 191.373C245.676 192.583 246.813 193.716 248.026 194.764C250.186 196.47 251.66 197.334 251.605 197.434Z" fill="#FAFAFA"/>
<path d="M253.211 166.267C253.3 166.267 252.591 167.884 251.782 170.543C250.719 173.997 250.094 177.571 249.92 181.18C249.754 184.794 250.033 188.415 250.751 191.961C251.317 194.676 251.859 196.316 251.782 196.393C251.573 196.047 251.413 195.674 251.305 195.285C250.925 194.246 250.61 193.184 250.364 192.105C248.654 184.94 249.012 177.437 251.394 170.466C251.734 169.387 252.145 168.332 252.624 167.308C252.778 166.939 252.975 166.589 253.211 166.267Z" fill="#FAFAFA"/>
<path d="M278.307 182.499C277.767 181.473 277.283 180.419 276.856 179.341C274.561 174.268 271.521 169.566 267.837 165.391C267.03 164.561 266.268 163.688 265.554 162.776C265.828 162.932 266.078 163.126 266.297 163.353C266.762 163.74 267.405 164.339 268.136 165.114C272.034 169.185 275.121 173.96 277.233 179.186C277.632 180.183 277.92 181.003 278.097 181.579C278.21 181.874 278.28 182.184 278.307 182.499Z" fill="#FAFAFA"/>
<path d="M285.62 164.859C285.971 165.597 286.2 166.386 286.296 167.197C287.014 171.061 286.885 175.034 285.919 178.842C285.765 179.641 285.488 180.411 285.099 181.125C285.639 178.451 286.009 175.746 286.207 173.025C286.183 170.294 285.987 167.566 285.62 164.859Z" fill="#FAFAFA"/>
<path d="M298.052 169.08C298.432 171.141 298.34 173.262 297.784 175.282C297.227 177.303 296.22 179.171 294.839 180.747C295.795 178.946 296.595 177.067 297.232 175.13C297.676 173.14 297.951 171.116 298.052 169.08Z" fill="#FAFAFA"/>
<path d="M308.777 214.165C308.667 214.165 308.899 212.248 308.91 209.168C308.901 205.144 308.422 201.135 307.481 197.223C306.522 193.328 305.105 189.561 303.26 185.999C301.83 183.274 300.756 181.689 300.833 181.634C301.155 181.968 301.434 182.34 301.664 182.742C302.374 183.741 303.025 184.78 303.614 185.855C305.586 189.401 307.077 193.195 308.046 197.135C309.006 201.074 309.431 205.126 309.309 209.179C309.281 210.402 309.184 211.623 309.021 212.835C308.984 213.285 308.902 213.731 308.777 214.165Z" fill="#455A64"/>
<path d="M331.658 195.572C331.749 196.077 331.79 196.589 331.78 197.101C331.78 197.6 331.78 198.209 331.78 198.918C331.78 199.628 331.779 200.425 331.658 201.312C331.492 203.387 331.185 205.449 330.738 207.483C329.625 212.467 327.705 217.235 325.054 221.599C323.965 223.374 322.762 225.076 321.453 226.696C320.91 227.394 320.345 227.981 319.88 228.502C319.414 229.023 318.982 229.466 318.628 229.809C318.292 230.184 317.921 230.525 317.52 230.829C317.808 230.405 318.138 230.012 318.506 229.654C318.838 229.289 319.248 228.834 319.68 228.292C320.112 227.749 320.655 227.184 321.176 226.441C322.435 224.807 323.593 223.097 324.644 221.322C325.905 219.14 327.016 216.875 327.968 214.541C328.895 212.192 329.657 209.782 330.25 207.328C330.722 205.32 331.069 203.285 331.292 201.234C331.414 200.359 331.436 199.561 331.491 198.863C331.547 198.165 331.58 197.567 331.58 197.068C331.562 196.568 331.588 196.068 331.658 195.572Z" fill="#FAFAFA"/>
<path d="M303.847 153.104C304.003 153.871 304.003 154.663 303.847 155.43C303.552 157.299 302.886 159.09 301.889 160.698C300.892 162.306 299.584 163.698 298.041 164.793C297.431 165.297 296.727 165.674 295.969 165.901C295.969 165.823 296.7 165.391 297.797 164.516C300.661 162.206 302.654 158.99 303.448 155.397C303.542 154.626 303.675 153.861 303.847 153.104Z" fill="#FAFAFA"/>
<path d="M325.442 164.87C325.599 165.629 325.58 166.413 325.386 167.164C325.053 168.995 324.294 170.722 323.17 172.205C322.037 173.692 320.562 174.885 318.871 175.684C318.193 176.068 317.434 176.288 316.655 176.327C316.655 176.238 317.464 175.983 318.672 175.319C320.232 174.445 321.6 173.265 322.694 171.851C323.782 170.432 324.569 168.807 325.01 167.075C325.32 165.745 325.342 164.87 325.442 164.87Z" fill="#FAFAFA"/>
<path d="M333.198 174.421C332.903 175.086 332.477 175.685 331.946 176.183C329.537 178.789 326.223 180.374 322.683 180.615C321.964 180.716 321.232 180.667 320.533 180.471C322.931 180.299 325.283 179.726 327.492 178.775C329.622 177.65 331.55 176.178 333.198 174.421Z" fill="#FAFAFA"/>
<path d="M281.942 162.555C280.825 160.968 280.222 159.077 280.213 157.137C280.002 155.22 280.389 153.285 281.321 151.597C280.931 153.417 280.737 155.275 280.745 157.137C280.956 158.979 281.357 160.795 281.942 162.555Z" fill="#FAFAFA"/>
<path d="M278.562 163.429C278.562 163.485 277.886 162.975 277.044 161.978C274.884 159.332 273.571 156.096 273.277 152.693C273.168 151.997 273.19 151.286 273.344 150.599C273.655 152.918 274.208 155.198 274.995 157.402C275.963 159.533 277.16 161.554 278.562 163.429Z" fill="#455A64"/>
<path d="M259.073 153.104C259.601 156.939 258.753 160.837 256.679 164.106C256.513 164.028 257.632 161.735 258.286 158.688C258.94 155.641 258.895 153.104 259.073 153.104Z" fill="#FAFAFA"/>
<path d="M242.397 168.715C242.397 168.782 241.865 168.615 241.156 168.139C240.256 167.49 239.501 166.659 238.94 165.701C238.353 164.75 237.975 163.685 237.832 162.577C237.744 161.735 237.832 161.203 237.91 161.214C238.224 162.674 238.731 164.086 239.417 165.413C240.257 166.643 241.26 167.754 242.397 168.715Z" fill="#455A64"/>
<path d="M251.106 125.946C251.184 126.012 249.998 127.275 248.513 129.658C246.62 132.757 245.422 136.231 245.001 139.839C244.58 143.446 244.947 147.102 246.076 150.555C246.94 153.214 247.837 154.71 247.738 154.765C247.467 154.454 247.24 154.107 247.062 153.735C246.524 152.757 246.064 151.738 245.688 150.688C244.43 147.193 244.002 143.455 244.436 139.767C244.871 136.079 246.157 132.542 248.192 129.436C248.802 128.502 249.483 127.616 250.231 126.788C250.751 126.212 251.073 125.913 251.106 125.946Z" fill="#FAFAFA"/>
<path d="M228.78 138.422C228.88 138.422 228.536 139.84 228.536 142.123C228.521 145.096 229.217 148.031 230.567 150.681C231.916 153.331 233.879 155.62 236.292 157.358C238.142 158.698 239.472 159.23 239.428 159.33C239.094 159.276 238.772 159.168 238.475 159.009C237.632 158.641 236.824 158.2 236.059 157.69C233.506 155.995 231.427 153.677 230.021 150.953C228.636 148.21 227.969 145.16 228.082 142.089C228.115 141.172 228.234 140.259 228.436 139.364C228.497 139.033 228.613 138.714 228.78 138.422Z" fill="#455A64"/>
<path d="M271.604 131.652C271.776 131.879 271.907 132.134 271.992 132.406C272.302 133.12 272.543 133.862 272.712 134.622C273.3 137.099 273.368 139.671 272.91 142.175C272.452 144.679 271.479 147.061 270.053 149.17C269.628 149.81 269.142 150.407 268.601 150.954C268.225 151.342 268.003 151.541 267.97 151.508C267.937 151.474 268.712 150.566 269.709 148.948C272.327 144.691 273.256 139.607 272.313 134.699C271.959 132.805 271.46 131.697 271.604 131.652Z" fill="#FAFAFA"/>
<path d="M282.706 135.331C282.996 136.106 283.132 136.93 283.105 137.758C283.23 141.802 281.853 145.749 279.238 148.838C278.735 149.498 278.115 150.061 277.41 150.5C277.879 149.835 278.382 149.195 278.917 148.583C281.272 145.46 282.593 141.679 282.695 137.769C282.728 136.284 282.618 135.342 282.706 135.331Z" fill="#455A64"/>
<path d="M300.6 141.657C300.667 141.657 300.999 142.1 301.298 142.976C301.676 144.132 301.812 145.354 301.697 146.566C301.567 147.781 301.19 148.958 300.589 150.023C300.124 150.831 299.714 151.23 299.659 151.131C300.351 149.648 300.825 148.073 301.066 146.455C301.139 144.842 300.982 143.226 300.6 141.657Z" fill="#FAFAFA"/>
<path d="M319.569 153.879C319.669 154.001 318.794 154.898 317.353 155.497C316.549 155.959 315.613 156.138 314.694 156.006C315.468 155.586 316.281 155.241 317.121 154.976C317.902 154.536 318.721 154.169 319.569 153.879Z" fill="#FAFAFA"/>
<path d="M330.782 162.743C331.488 163.921 331.777 165.303 331.602 166.665C331.623 168.037 331.191 169.377 330.372 170.477C330.217 170.399 330.926 168.771 331.026 166.632C331.126 164.494 330.616 162.799 330.782 162.743Z" fill="#455A64"/>
<path d="M313.287 128.162C313.287 128.162 313.509 128.373 313.775 128.827C314.153 129.471 314.469 130.15 314.716 130.855C315.569 133.195 315.799 135.717 315.386 138.174C314.972 140.631 313.928 142.938 312.356 144.871C311.889 145.456 311.366 145.994 310.794 146.477C310.395 146.821 310.151 146.976 310.118 146.943C310.085 146.909 310.938 146.123 312.035 144.627C313.465 142.695 314.417 140.452 314.816 138.082C315.215 135.712 315.048 133.281 314.329 130.988C313.797 129.215 313.198 128.206 313.287 128.162Z" fill="#455A64"/>
<path d="M327.48 139.796C327.475 140.623 327.294 141.439 326.949 142.19C326.212 144.045 325.049 145.702 323.554 147.024C322.058 148.347 320.272 149.298 318.339 149.802C317.553 150.054 316.722 150.137 315.902 150.045C315.902 149.946 316.821 149.857 318.229 149.414C320.053 148.822 321.735 147.86 323.17 146.588C324.606 145.316 325.764 143.763 326.572 142.023C327.192 140.716 327.381 139.774 327.48 139.796Z" fill="#FAFAFA"/>
<path d="M337.94 153.104C337.986 153.651 337.887 154.202 337.652 154.699C337.192 155.932 336.463 157.047 335.518 157.963C334.573 158.879 333.436 159.573 332.189 159.995C331.686 160.206 331.138 160.29 330.594 160.239C332.251 159.621 333.782 158.709 335.115 157.547C336.325 156.254 337.283 154.748 337.94 153.104Z" fill="#455A64"/>
<path d="M237.467 315.669L264.912 299.824L318.827 294.506L319.182 302.406L304.622 412.552L316.478 505.491H230.087L237.467 315.669Z" fill="#263238"/>
<path d="M262.895 311.082L261.2 295.226C261.13 294.563 261.192 293.893 261.383 293.254C261.574 292.616 261.89 292.021 262.312 291.506C262.735 290.99 263.256 290.564 263.845 290.252C264.434 289.939 265.079 289.747 265.743 289.686L316.024 285.143C316.347 285.114 316.672 285.152 316.98 285.253C317.287 285.354 317.571 285.517 317.814 285.732C318.057 285.946 318.253 286.208 318.391 286.502C318.529 286.795 318.606 287.113 318.616 287.437L319.182 306.273L304.622 330.981L289.653 335.723H271.36L260.834 324.488L262.895 311.082Z" fill="#263238"/>
<path d="M311.758 300.268C311.086 300.241 310.416 300.174 309.752 300.068C307.929 299.896 306.096 299.862 304.268 299.968C301.557 300.154 298.865 300.543 296.213 301.132C293.21 301.763 289.953 302.65 286.496 303.492C283.244 304.333 279.932 304.922 276.59 305.254C273.845 305.508 271.077 305.32 268.391 304.7C266.579 304.267 264.847 303.549 263.261 302.572C262.839 302.299 262.432 302.003 262.042 301.686C261.776 301.464 261.643 301.331 261.665 301.32C261.687 301.309 262.264 301.719 263.394 302.362C264.992 303.239 266.709 303.881 268.491 304.267C271.138 304.818 273.856 304.957 276.546 304.677C279.85 304.318 283.124 303.718 286.34 302.882C289.786 302.04 293.066 301.165 296.102 300.567C298.783 299.995 301.507 299.647 304.246 299.525C306.098 299.454 307.952 299.554 309.786 299.824C310.439 299.935 310.894 300.024 311.27 300.112C311.437 300.149 311.6 300.201 311.758 300.268Z" fill="#455A64"/>
<g opacity="0.3">
<path d="M264.092 302.739C262.74 306.439 262.707 311.027 265.432 313.819C267.648 316.134 271.238 316.711 274.385 316.035C277.501 315.234 280.457 313.907 283.127 312.112C290.052 307.991 297.077 303.725 304.944 301.985C305.459 301.919 305.946 301.712 306.351 301.387C306.448 301.305 306.527 301.203 306.583 301.089C306.638 300.975 306.67 300.85 306.675 300.723C306.68 300.596 306.659 300.469 306.613 300.351C306.567 300.233 306.496 300.125 306.406 300.035C306.21 299.913 305.984 299.847 305.753 299.847C298.794 299.149 292.102 301.897 285.288 303.426C278.474 304.955 270.64 306.561 264.402 302.883" fill="black"/>
</g>
<path d="M273.676 289.188C272.962 289.572 272.365 290.143 271.948 290.838C271.161 292.113 271.261 294.273 271.261 296.611C271.394 301.309 272.169 305.054 271.981 305.098C271.637 304.327 271.409 303.51 271.305 302.672C270.916 300.681 270.693 298.661 270.64 296.633C270.59 295.525 270.612 294.415 270.707 293.309C270.774 292.362 271.07 291.446 271.571 290.639C271.915 290.093 272.407 289.655 272.989 289.376C273.432 289.188 273.676 289.188 273.676 289.188Z" fill="#455A64"/>
<path d="M286.972 302.96C286.773 302.96 287.227 299.481 286.606 295.292C285.986 291.104 284.634 287.891 284.822 287.813C285.276 288.431 285.624 289.12 285.853 289.852C286.51 291.579 286.971 293.374 287.227 295.204C287.497 297.038 287.553 298.897 287.393 300.744C287.378 301.501 287.236 302.25 286.972 302.96Z" fill="#455A64"/>
<path d="M303.171 286.484C303.619 287.033 303.944 287.672 304.124 288.357C305.225 291.62 304.986 295.187 303.459 298.274C303.2 298.935 302.791 299.527 302.262 300.002C303.262 297.908 303.903 295.661 304.157 293.354C304.445 289.476 302.972 286.551 303.171 286.484Z" fill="#455A64"/>
<path d="M200.714 451.388C200.714 451.388 212.902 361.64 216.459 345.363C217.798 339.256 220.352 333.482 223.969 328.382C227.585 323.283 232.191 318.963 237.511 315.68L240.89 478.29L226.032 496.993L209.412 503.353C205.607 504.815 201.406 504.882 197.556 503.541L181.634 498.001L180.283 467.664L193.734 463.775L200.714 451.388Z" fill="#263238"/>
<path d="M366.349 314.14C372.448 316.513 377.87 320.348 382.14 325.307C386.41 330.266 389.396 336.198 390.836 342.582C400.343 384.476 416.608 440.219 416.863 458.202C417.184 481.104 407.168 496.783 394.093 499.674C386.614 501.325 335.746 500.494 308.124 499.907C303.192 499.799 298.464 497.92 294.802 494.615C291.141 491.309 288.79 486.797 288.18 481.902C287.505 476.562 288.951 471.169 292.208 466.883C295.464 462.597 300.272 459.759 305.597 458.978L361.563 450.745L351.17 392.675L361.452 312.245L366.349 314.14Z" fill="#263238"/>
<path d="M317.741 296.168L340.156 305.331L361.474 312.245L361.984 376.033L349.297 505.325L304.811 505.491L304.899 447.787C303.246 419.97 305.062 392.055 310.306 364.687L317.076 309.83" fill="#263238"/>
<path d="M350.538 386.803C350.619 387.01 350.675 387.225 350.704 387.445C350.804 387.944 350.926 388.553 351.07 389.307C351.38 391.013 351.812 393.34 352.322 396.165C353.352 402.049 354.737 410.026 356.277 418.835C357.817 427.644 359.07 435.643 360.056 441.527C360.499 444.374 360.864 446.701 361.164 448.419C361.274 449.183 361.363 449.804 361.43 450.302C361.461 450.523 361.461 450.747 361.43 450.967C361.349 450.76 361.293 450.544 361.263 450.324C361.153 449.826 361.031 449.216 360.876 448.463C360.565 446.757 360.133 444.441 359.601 441.604C358.56 435.81 357.153 427.799 355.646 418.935C354.139 410.071 352.798 402.06 351.879 396.243C351.435 393.395 351.081 391.069 350.771 389.351C350.671 388.587 350.593 387.966 350.527 387.468C350.499 387.247 350.502 387.023 350.538 386.803Z" fill="#263238"/>
<path d="M371.535 323.203C370.98 323.458 370.405 323.67 369.817 323.835C368.262 324.403 366.741 325.061 365.263 325.807C360.404 328.306 356.19 331.898 352.953 336.3C352.029 337.54 351.217 338.86 350.527 340.244C349.929 341.553 349.444 342.909 349.075 344.299C348.447 346.672 348.039 349.098 347.857 351.546C347.668 353.629 347.635 355.335 347.624 356.51C347.664 357.118 347.664 357.729 347.624 358.338C347.488 357.738 347.421 357.125 347.424 356.51C347.332 354.845 347.332 353.177 347.424 351.513C347.549 349.029 347.92 346.565 348.532 344.155C348.896 342.723 349.385 341.325 349.995 339.978C350.692 338.557 351.519 337.203 352.466 335.934C355.752 331.449 360.084 327.836 365.086 325.408C366.596 324.686 368.159 324.082 369.762 323.602C370.337 323.407 370.931 323.273 371.535 323.203Z" fill="#263238"/>
<path d="M304.312 459.211C304.572 459.219 304.832 459.201 305.088 459.155L307.304 458.878L315.481 457.77L342.427 453.77L362.017 450.756H361.939C364.436 451.115 366.786 452.154 368.731 453.759C370.254 454.975 371.519 456.482 372.454 458.191C373.242 459.699 373.802 461.316 374.116 462.989C374.134 462.875 374.134 462.759 374.116 462.645C374.116 462.413 374.116 462.08 373.983 461.648C373.749 460.393 373.331 459.18 372.742 458.047C371.826 456.268 370.56 454.693 369.019 453.416C367.026 451.723 364.602 450.619 362.017 450.225H361.939L342.372 453.172L315.459 457.349L307.315 458.679L305.099 459.078C304.833 459.093 304.569 459.138 304.312 459.211Z" fill="#263238"/>
<path d="M308.811 499.929C308.996 499.899 309.176 499.839 309.343 499.752C309.85 499.569 310.343 499.347 310.816 499.087C312.571 498.153 314.137 496.902 315.437 495.398C317.361 493.154 318.792 490.53 319.636 487.697C320.681 484.231 320.957 480.578 320.445 476.994C319.861 473.397 318.332 470.021 316.013 467.21C314.155 464.923 311.852 463.039 309.243 461.67C307.505 460.741 305.638 460.08 303.703 459.709C303.027 459.565 302.473 459.565 302.107 459.51C301.923 459.485 301.737 459.485 301.553 459.51C304.183 459.949 306.724 460.813 309.077 462.069C311.595 463.469 313.812 465.352 315.603 467.609C317.82 470.355 319.283 473.632 319.846 477.116C320.34 480.597 320.087 484.144 319.104 487.52C318.308 490.293 316.95 492.872 315.115 495.099C313.868 496.602 312.368 497.877 310.683 498.866C309.509 499.564 308.788 499.863 308.811 499.929Z" fill="#263238"/>
<g opacity="0.2">
<path d="M351.369 390.946L343.015 453.338L353.596 450.967L356.876 423.743L351.369 390.946Z" fill="black"/>
</g>
<g opacity="0.3">
<path d="M180.526 467.676C185.553 466.767 190.702 466.767 195.728 467.676C197.879 468.157 199.899 469.101 201.649 470.44C203.4 471.779 204.839 473.482 205.866 475.432C207.838 479.095 208.45 483.338 207.595 487.409C206.875 490.921 206.121 494.556 203.551 497.049C199.761 500.727 196.027 501.913 191.13 501.048L181.712 497.99L180.526 467.676Z" fill="black"/>
</g>
<path d="M188.637 500.417C188.837 500.53 189.048 500.619 189.269 500.683C189.884 500.907 190.518 501.077 191.163 501.193C193.546 501.683 196.014 501.554 198.332 500.816C199.934 500.293 201.411 499.448 202.675 498.334C204.105 497.041 205.281 495.493 206.143 493.769C207.094 491.871 207.762 489.844 208.127 487.753C208.612 485.516 208.665 483.206 208.282 480.949C207.79 478.722 206.941 476.589 205.767 474.634C204.754 472.867 203.386 471.329 201.75 470.117C200.114 468.904 198.245 468.043 196.26 467.587C194.631 467.241 192.972 467.055 191.307 467.033C188.913 467.013 186.521 467.169 184.15 467.498L182.222 467.775C181.994 467.789 181.77 467.837 181.557 467.919C181.781 467.946 182.008 467.946 182.233 467.919L184.172 467.764C186.539 467.527 188.918 467.438 191.296 467.498C192.926 467.549 194.548 467.756 196.138 468.119C197.947 468.557 199.655 469.339 201.168 470.423C204.371 472.639 206.708 476.706 207.672 481.093C208.041 483.273 207.992 485.503 207.528 487.664C207.185 489.699 206.546 491.674 205.634 493.525C204.81 495.196 203.683 496.699 202.31 497.957C201.106 499.042 199.697 499.875 198.166 500.406C195.92 501.162 193.524 501.36 191.185 500.982C189.546 500.694 188.659 500.362 188.637 500.417Z" fill="#263238"/>
<g opacity="0.3">
<path d="M302.938 459.576C307.37 460.795 312.079 462.169 315.126 465.626C318.225 469.447 320.033 474.153 320.289 479.066C320.546 483.979 319.239 488.848 316.556 492.971C315.164 495.24 313.297 497.179 311.082 498.655C308.807 499.802 306.216 500.164 303.714 499.686C297.066 498.578 291.393 493.215 289.421 486.722C288.453 483.31 288.208 479.733 288.703 476.22C289.197 472.708 290.419 469.337 292.29 466.324C294.085 463.631 299.847 460.551 302.927 459.576" fill="black"/>
</g>
<path d="M384.155 475.032C383.96 474.599 383.801 474.151 383.678 473.692C383.401 472.827 383.002 471.575 382.459 470.046C381.15 466.047 379.212 462.28 376.72 458.889C374.154 455.534 370.699 452.967 366.748 451.476C365.091 450.935 363.383 450.564 361.651 450.368C362.122 450.308 362.599 450.308 363.069 450.368C364.366 450.454 365.647 450.703 366.881 451.111C370.96 452.526 374.53 455.117 377.141 458.556C379.698 461.987 381.636 465.838 382.869 469.936C383.368 471.498 383.711 472.772 383.977 473.658C384.094 474.107 384.153 474.569 384.155 475.032Z" fill="#455A64"/>
<path d="M345.696 360.398C345.812 360.684 345.897 360.981 345.951 361.285C346.095 361.927 346.305 362.792 346.56 363.878C347.081 366.094 347.79 369.418 348.643 373.417C350.35 381.484 352.554 392.674 354.726 405.073C356.898 417.472 358.582 428.74 359.701 436.917C360.266 440.994 360.698 444.307 360.975 446.601C361.097 447.709 361.197 448.584 361.274 449.238C361.352 449.892 361.352 450.158 361.341 450.169C361.249 449.869 361.185 449.561 361.153 449.249C361.053 448.606 360.92 447.731 360.743 446.634C360.399 444.296 359.912 441.005 359.302 436.972C358.072 428.817 356.311 417.56 354.15 405.173C351.989 392.785 349.851 381.583 348.244 373.495C347.447 369.495 346.804 366.238 346.339 363.922C346.128 362.814 345.962 361.961 345.84 361.318C345.767 361.016 345.719 360.708 345.696 360.398Z" fill="#455A64"/>
<path d="M364.621 315.536C364.621 315.625 363.391 316.323 361.496 317.686C359.043 319.459 356.811 321.52 354.848 323.824C352.887 326.138 351.217 328.683 349.873 331.403C348.843 333.497 348.355 334.86 348.267 334.826C348.291 334.483 348.373 334.145 348.51 333.829C348.787 332.941 349.12 332.071 349.508 331.225C350.765 328.421 352.414 325.81 354.405 323.469C356.404 321.125 358.72 319.071 361.286 317.364C362.06 316.848 362.867 316.381 363.701 315.968C363.985 315.78 364.294 315.634 364.621 315.536Z" fill="#455A64"/>
<path d="M231.118 463.631C231.104 463.536 231.104 463.439 231.118 463.343C231.118 463.133 231.118 462.856 231.118 462.523C231.118 461.759 231.118 460.695 231.118 459.354C231.062 456.606 231.051 452.629 230.741 447.731C230.575 445.283 230.32 442.601 229.888 439.754C229.456 436.906 228.78 433.892 227.993 430.746C226.442 424.452 224.226 417.561 223.761 410.004C223.534 402.91 224.443 395.825 226.453 389.018C228.126 382.725 229.988 377.163 231.328 372.398C232.429 368.68 233.324 364.903 234.01 361.086C234.276 359.734 234.375 358.67 234.497 357.961C234.497 357.629 234.586 357.363 234.619 357.141C234.652 356.92 234.619 356.864 234.685 356.875C234.695 356.967 234.695 357.06 234.685 357.152C234.685 357.374 234.685 357.64 234.619 357.972C234.541 358.692 234.475 359.767 234.242 361.119C233.592 364.983 232.7 368.801 231.572 372.554C230.287 377.296 228.47 382.869 226.819 389.174C224.873 395.924 223.998 402.938 224.226 409.96C224.691 417.428 226.863 424.286 228.403 430.602C229.174 433.589 229.788 436.614 230.242 439.665C230.663 442.535 230.896 445.205 231.029 447.687C231.295 452.607 231.251 456.551 231.229 459.343C231.229 460.684 231.229 461.748 231.173 462.512V463.332C231.17 463.434 231.151 463.535 231.118 463.631Z" fill="#455A64"/>
<path d="M346.394 335.258L346.039 335.17L345.042 334.86C343.756 334.487 342.44 334.227 341.109 334.084C336.19 333.633 331.233 334.311 326.616 336.067C323.423 337.241 320.342 338.698 317.409 340.422C314.218 342.239 310.927 344.388 307.437 346.615C303.81 349.001 300.023 351.134 296.102 352.997C291.865 355.016 287.303 356.261 282.629 356.676C277.918 356.947 273.213 356.049 268.934 354.061C264.996 352.22 261.226 350.04 257.665 347.546C254.231 345.241 251.017 343.014 247.771 341.242C244.825 339.549 241.665 338.259 238.375 337.408C235.653 336.751 232.839 336.564 230.054 336.854C227.953 337.081 225.903 337.646 223.982 338.527C222.356 339.322 220.862 340.36 219.55 341.607C219.619 341.511 219.697 341.422 219.783 341.341C219.949 341.175 220.193 340.909 220.525 340.599C221.531 339.717 222.649 338.972 223.849 338.383C225.781 337.448 227.856 336.841 229.988 336.588C232.812 336.264 235.671 336.425 238.442 337.064C241.775 337.905 244.98 339.19 247.97 340.887C251.217 342.649 254.485 344.865 257.942 347.158C261.488 349.623 265.239 351.777 269.155 353.596C273.344 355.514 277.941 356.374 282.54 356.1C287.152 355.696 291.654 354.473 295.836 352.488C299.737 350.642 303.506 348.528 307.115 346.161C310.617 343.945 313.919 341.818 317.143 340.001C320.108 338.281 323.223 336.835 326.45 335.679C331.124 333.94 336.14 333.317 341.098 333.862C342.437 334.034 343.758 334.331 345.042 334.749L346.028 335.114C346.157 335.143 346.281 335.191 346.394 335.258Z" fill="#FAFAFA"/>
<path d="M388.742 347.036C388.411 347.49 388.04 347.913 387.634 348.299C387.189 348.785 386.711 349.241 386.204 349.662C385.568 350.254 384.899 350.809 384.199 351.324C383.362 351.968 382.489 352.563 381.584 353.108C380.556 353.752 379.495 354.34 378.404 354.87C375.894 356.067 373.265 356.995 370.56 357.64C367.841 358.238 365.067 358.55 362.283 358.571C361.068 358.566 359.855 358.496 358.649 358.36C357.599 358.267 356.555 358.112 355.524 357.895C354.56 357.74 353.729 357.463 352.987 357.274C352.35 357.111 351.725 356.907 351.114 356.665C350.58 356.5 350.064 356.281 349.574 356.011C349.574 355.889 351.79 356.82 355.602 357.485C356.623 357.678 357.655 357.811 358.693 357.884C359.801 358.028 361.02 358.006 362.283 358.039C365.022 357.984 367.75 357.661 370.427 357.075C373.095 356.441 375.693 355.543 378.183 354.393C379.291 353.817 380.399 353.285 381.351 352.698C382.252 352.176 383.125 351.606 383.966 350.992C387.058 348.743 388.642 346.948 388.742 347.036Z" fill="#FAFAFA"/>
<path d="M230.586 368.188C229.724 368.35 228.841 368.376 227.971 368.266C225.858 368.126 223.772 367.713 221.766 367.036C219.762 366.358 217.852 365.427 216.082 364.266C215.32 363.831 214.632 363.277 214.043 362.626C216.552 364.161 219.201 365.452 221.955 366.482C224.77 367.327 227.661 367.899 230.586 368.188Z" fill="#FAFAFA"/>
<path d="M348.1 375.113C346.845 374.196 345.519 373.381 344.134 372.675C340.246 370.968 336.008 370.208 331.768 370.459C326.384 370.537 320.101 371.955 313.221 373.783C306.34 375.612 298.817 377.872 290.706 379.39C286.762 380.156 282.765 380.615 278.751 380.764C275.008 380.882 271.263 380.705 267.549 380.232C261.274 379.406 255.078 378.064 249.023 376.221C243.849 374.692 239.727 373.252 236.835 372.254L233.566 371.091L232.724 370.77C232.536 370.692 232.436 370.648 232.447 370.637C232.549 370.653 232.649 370.679 232.746 370.714L233.611 370.98L236.935 372.088C239.804 373.019 243.937 374.393 249.123 375.877C255.173 377.651 261.352 378.947 267.604 379.755C271.28 380.2 274.984 380.363 278.684 380.243C282.672 380.082 286.643 379.623 290.562 378.869C298.628 377.351 306.14 375.08 313.043 373.329C319.946 371.578 326.273 370.149 331.713 370.116C336.011 369.911 340.294 370.759 344.189 372.587L345.131 373.085L345.929 373.595C346.35 373.843 346.75 374.124 347.125 374.437L347.823 375.013L348.1 375.113Z" fill="#FAFAFA"/>
<path d="M151.652 499.409C151.652 499.409 163.231 501.115 167.663 502.91C172.471 504.849 178.41 503.719 182.443 501.104C184.736 499.652 186.881 497.978 188.848 496.107L203.65 496.184C205.836 493.74 207.304 490.738 207.89 487.512C208.477 484.286 208.16 480.96 206.974 477.902C206.206 475.778 205.082 473.8 203.65 472.052C201.933 470.113 199.218 468.518 194.41 467.62L176.748 471.055C176.748 471.055 154.355 470.678 145.325 470.257C143.154 470.155 141.008 470.749 139.198 471.952C137.082 473.36 134.688 475.276 134.877 476.462C135.01 477.359 133.547 483.11 137.902 486.822C137.902 486.822 133.979 489.802 136.007 492.606L136.982 493.846C136.982 493.846 134.323 497.17 135.619 498.633C136.916 500.096 148.439 507.209 152.638 505.658C156.837 504.107 153.48 500.184 151.652 499.442" fill="#B78876"/>
<path d="M140.938 480.872C141.432 481.012 141.914 481.194 142.378 481.415C143.287 481.781 144.594 482.301 146.267 482.878C147.098 483.155 148.018 483.454 149.004 483.731C149.99 484.008 151.076 484.263 152.195 484.65C153.412 485.009 154.506 485.7 155.353 486.645C155.816 487.17 156.131 487.809 156.268 488.496C156.404 489.183 156.356 489.894 156.128 490.556C155.829 491.218 155.308 491.755 154.655 492.074C154.039 492.355 153.379 492.523 152.705 492.573C151.465 492.618 150.223 492.525 149.004 492.296C146.962 491.928 144.962 491.36 143.032 490.6C141.381 489.98 140.073 489.393 139.176 488.994C138.699 488.805 138.239 488.576 137.802 488.307C138.299 488.437 138.784 488.607 139.253 488.816C140.173 489.171 141.469 489.703 143.143 490.279C145.072 490.978 147.059 491.505 149.081 491.852C150.261 492.068 151.462 492.15 152.66 492.096C153.274 492.053 153.874 491.899 154.433 491.642C154.991 491.381 155.432 490.923 155.674 490.357C155.868 489.777 155.907 489.157 155.786 488.558C155.666 487.96 155.39 487.403 154.987 486.944C154.197 486.064 153.182 485.417 152.051 485.071C150.943 484.684 149.89 484.429 148.893 484.119C147.896 483.808 146.987 483.498 146.156 483.199C144.494 482.589 143.187 482.013 142.3 481.581C141.827 481.383 141.371 481.146 140.938 480.872Z" fill="#AA6550"/>
<path d="M142.156 472.484C142.644 472.638 143.122 472.823 143.586 473.038C144.494 473.415 145.802 473.947 147.453 474.534C149.104 475.121 151.087 475.764 153.314 476.351C154.549 476.57 155.717 477.07 156.727 477.814C157.26 478.278 157.606 478.92 157.702 479.62C157.788 480.326 157.669 481.041 157.358 481.681C157.045 482.291 156.608 482.829 156.076 483.262C155.544 483.695 154.928 484.013 154.267 484.196C153.068 484.559 151.8 484.635 150.566 484.418C148.543 483.976 146.563 483.357 144.649 482.567L140.716 481.116C140.23 480.958 139.76 480.757 139.309 480.517C139.811 480.617 140.304 480.758 140.782 480.938L144.716 482.246C146.625 482.976 148.588 483.554 150.588 483.974C151.753 484.17 152.948 484.094 154.078 483.753C154.675 483.583 155.231 483.293 155.711 482.9C156.191 482.508 156.586 482.021 156.871 481.47C157.172 480.94 157.285 480.323 157.192 479.72C157.1 479.117 156.807 478.562 156.361 478.146C155.413 477.447 154.318 476.974 153.159 476.761C150.943 476.141 148.926 475.465 147.286 474.833C145.647 474.202 144.35 473.615 143.464 473.194C143.007 472.998 142.569 472.761 142.156 472.484Z" fill="#AA6550"/>
<path d="M188.637 476.207L178.388 472.008C178.388 472.008 149.946 458.002 149.447 458.712C148.948 459.421 147.397 459.321 147.663 462.833C147.929 466.346 164.516 473.747 165.026 475.021C165.535 476.296 164.516 482.356 170.566 486.877C176.615 491.398 181.114 491.597 181.114 491.597" fill="#B78876"/>
<path d="M181.147 491.552H180.892C180.654 491.536 180.418 491.506 180.183 491.464C179.274 491.311 178.38 491.077 177.513 490.766C176.135 490.276 174.804 489.664 173.535 488.937C171.841 487.998 170.267 486.856 168.848 485.536C167.148 483.863 165.967 481.736 165.447 479.409C165.178 478.134 165 476.842 164.915 475.542C164.894 475.389 164.864 475.237 164.826 475.087C164.759 474.976 164.668 474.882 164.56 474.81C164.294 474.607 164.016 474.418 163.729 474.245C163.153 473.891 162.544 473.547 161.923 473.193C159.463 471.819 156.837 470.423 154.167 468.827C152.849 468.03 151.519 467.187 150.234 466.235C149.577 465.751 148.962 465.213 148.394 464.628C148.094 464.322 147.834 463.979 147.619 463.609C147.514 463.406 147.439 463.19 147.397 462.966C147.381 462.752 147.381 462.537 147.397 462.323C147.319 461.465 147.492 460.603 147.896 459.841C148.134 459.475 148.452 459.168 148.827 458.944C148.975 458.853 149.109 458.741 149.225 458.612C149.225 458.612 149.225 458.612 149.325 458.512C149.388 458.47 149.461 458.447 149.536 458.445H149.735L150.045 458.523C151.597 459.044 153.004 459.697 154.477 460.318C157.292 461.57 160.017 462.833 162.533 464.052C167.64 466.478 172.216 468.716 176.05 470.622C177.003 471.088 177.912 471.564 178.787 471.952L181.291 473.004L185.313 474.689L187.839 475.797L188.493 476.096L188.703 476.207L188.471 476.14L187.806 475.896L185.235 474.888L181.18 473.27L178.654 472.262C177.768 471.874 176.87 471.409 175.895 470.944L162.344 464.473C159.785 463.276 157.092 462.013 154.278 460.772C152.882 460.163 151.441 459.498 149.968 459.01L149.702 458.944H149.58C149.58 458.944 149.58 458.877 149.58 458.833C149.901 459.055 149.658 458.9 149.724 458.955C149.577 459.127 149.405 459.276 149.214 459.398C148.899 459.587 148.63 459.845 148.428 460.152C148.084 460.837 147.934 461.603 147.996 462.368C147.972 462.75 148.049 463.132 148.217 463.476C148.41 463.807 148.645 464.112 148.915 464.384C149.464 464.947 150.057 465.466 150.688 465.935C151.951 466.877 153.27 467.719 154.577 468.506C157.203 470.101 159.818 471.509 162.333 472.938C162.954 473.292 163.563 473.636 164.15 474.046C164.438 474.234 164.737 474.412 165.014 474.633C165.19 474.751 165.329 474.916 165.413 475.11C165.469 475.282 165.506 475.461 165.524 475.641C165.604 476.933 165.77 478.217 166.023 479.486C166.52 481.746 167.65 483.817 169.28 485.458C170.666 486.772 172.202 487.918 173.856 488.871C175.105 489.607 176.414 490.237 177.768 490.755C178.622 491.083 179.499 491.346 180.393 491.541C180.693 491.608 180.936 491.641 181.092 491.663L181.147 491.552Z" fill="#AA6550"/>
<path d="M149.436 492.229C149.82 492.29 150.193 492.405 150.544 492.572C151.506 492.987 152.405 493.535 153.214 494.201C153.782 494.661 154.298 495.181 154.754 495.752C155.038 496.087 155.253 496.475 155.386 496.893C155.519 497.312 155.568 497.752 155.53 498.19C155.426 498.676 155.188 499.123 154.844 499.481C154.499 499.839 154.061 500.094 153.58 500.217C152.582 500.465 151.533 500.411 150.566 500.062C147.299 499.019 144.138 497.668 141.126 496.029C140.219 495.535 139.342 494.987 138.5 494.389C138.178 494.187 137.877 493.954 137.603 493.691C137.952 493.838 138.286 494.02 138.6 494.234C139.231 494.611 140.151 495.131 141.303 495.73C144.329 497.255 147.466 498.548 150.688 499.597C151.562 499.914 152.508 499.971 153.414 499.763C153.817 499.67 154.187 499.467 154.481 499.175C154.774 498.883 154.981 498.515 155.076 498.112C155.108 497.73 155.065 497.346 154.95 496.981C154.834 496.616 154.647 496.277 154.4 495.985C153.978 495.427 153.499 494.914 152.97 494.456C151.891 493.568 150.703 492.819 149.436 492.229Z" fill="#AA6550"/>
<path d="M312.378 463.941L294.119 464.318C294.119 464.318 266.751 454.423 261.122 455.376C256.048 456.218 237.489 468.55 233.854 470.999C233.446 471.261 233.134 471.65 232.968 472.107C232.61 473.072 232.64 474.139 233.054 475.082C233.467 476.024 234.231 476.77 235.184 477.159L235.572 477.326L235.406 477.88C235.185 478.597 235.088 479.346 235.118 480.096C235.162 480.663 235.386 481.201 235.757 481.632C236.128 482.063 236.626 482.365 237.18 482.495C237.734 482.624 238.314 482.574 238.838 482.352C239.362 482.13 239.801 481.747 240.093 481.259L239.394 482.5C239.108 483.005 238.974 483.582 239.007 484.162L239.073 485.27C239.106 485.883 239.323 486.471 239.697 486.958C240.071 487.444 240.584 487.806 241.167 487.996C241.724 488.177 242.321 488.193 242.887 488.044C243.453 487.895 243.963 487.586 244.358 487.154C246.707 484.572 251.793 479.398 255.228 478.81C258.959 478.362 262.717 478.173 266.474 478.245C267.238 478.25 267.983 478.485 268.612 478.92C269.241 479.355 269.723 479.969 269.997 480.683C267.959 480.827 253.732 488.239 248.702 490.899C247.923 491.288 247.249 491.86 246.74 492.566C246.23 493.273 245.9 494.092 245.777 494.954C245.588 496.527 246.386 498.178 249.499 497.447C256.147 495.885 268.225 490.356 268.225 490.356C268.225 490.356 274.441 488.583 278.463 491.464C284.113 495.453 286.706 496.915 291.57 495.309C294.522 494.32 297.354 493.004 300.013 491.386L316.567 492.993C316.567 492.993 326.694 476.439 312.378 463.941Z" fill="#B78876"/>
<path d="M270.108 468.939C270.108 469.049 268.158 468.429 264.967 468.23C260.791 467.948 256.608 468.656 252.757 470.297C248.906 471.937 245.497 474.463 242.807 477.67C240.746 480.118 239.86 481.935 239.771 481.88C239.918 481.43 240.123 481.002 240.381 480.606C241.01 479.493 241.729 478.433 242.53 477.437C245.188 474.112 248.628 471.497 252.544 469.826C256.459 468.156 260.727 467.482 264.967 467.864C266.242 467.971 267.506 468.186 268.745 468.507C269.212 468.607 269.669 468.752 270.108 468.939Z" fill="#AA6550"/>
<path d="M267.205 462.291C265.465 461.768 263.668 461.456 261.854 461.36C257.453 461.339 253.137 462.56 249.4 464.883C245.697 467.262 242.322 470.115 239.361 473.371L236.613 476.296C236.296 476.671 235.947 477.02 235.572 477.337C235.825 476.913 236.126 476.519 236.469 476.163C237.068 475.432 237.965 474.39 239.095 473.127C242.008 469.765 245.389 466.84 249.134 464.44C252.945 462.061 257.374 460.862 261.865 460.994C263.218 461.054 264.556 461.3 265.842 461.726C266.191 461.832 266.531 461.961 266.862 462.113C266.986 462.152 267.102 462.212 267.205 462.291Z" fill="#AA6550"/>
<path d="M191.052 200.083C185.044 186.115 174.542 174.554 161.214 167.234C147.886 159.915 132.495 157.256 117.484 159.681C102.473 162.105 88.7018 169.474 78.3557 180.617C68.0095 191.76 61.6813 206.039 60.3753 221.188C59.0693 236.338 62.8604 251.489 71.1469 264.239C79.4333 276.988 91.7405 286.604 106.115 291.562C120.49 296.52 136.109 296.535 150.493 291.604C164.877 286.674 177.202 277.08 185.512 264.347L211.883 263.915L194.687 243.206C198.207 228.82 196.931 213.677 191.052 200.083Z" fill="#FAFAFA"/>
<path d="M101.304 164.25C100.924 164.372 100.554 164.524 100.196 164.704L97.0497 166.2C96.3517 166.543 95.565 166.876 94.734 167.308L92.0748 168.914L88.9835 170.809L85.6595 173.313C80.011 177.654 75.1148 182.895 71.1668 188.825C65.875 196.647 62.2331 205.465 60.4636 214.741C58.4254 226.043 59.1863 237.673 62.6796 248.613C63.6728 251.585 64.8571 254.491 66.2252 257.311C66.9564 258.729 67.5658 260.225 68.4412 261.599L71.0228 265.754C74.7824 271.383 79.3523 276.427 84.5847 280.723C90.1123 285.18 96.255 288.815 102.822 291.515C109.748 294.202 117.047 295.801 124.462 296.257C132.15 296.776 139.87 295.932 147.264 293.764C149.15 293.267 151.001 292.645 152.804 291.902C154.666 291.268 156.489 290.528 158.267 289.686C161.863 287.961 165.307 285.934 168.56 283.626C175.564 278.636 181.577 272.383 186.288 265.188L185.668 265.532L211.528 264.878H213.057L212.104 263.682L195.484 242.896L195.628 243.527C198.188 233.017 198.241 222.052 195.784 211.517C194.667 206.605 192.959 201.847 190.698 197.346C189.694 195.142 188.527 193.016 187.208 190.986L185.324 187.972C184.67 186.997 183.895 186.111 183.208 185.18C173.27 172.276 159.07 163.322 143.143 159.917C137.259 158.606 131.223 158.11 125.204 158.444L121.392 158.688L117.924 159.242L114.744 159.762C113.758 159.984 112.828 160.272 111.941 160.505C110.18 161.014 108.617 161.347 107.288 161.845L103.964 163.131L101.936 163.984C101.706 164.06 101.487 164.164 101.282 164.294C101.526 164.258 101.765 164.191 101.991 164.095L104.03 163.408L107.354 162.233C108.673 161.79 110.257 161.48 112.019 161.014C124.874 157.932 138.347 158.645 150.806 163.066C163.264 167.487 174.173 175.426 182.211 185.922C182.886 186.842 183.64 187.717 184.271 188.67L186.111 191.639C187.399 193.636 188.533 195.729 189.501 197.9C191.705 202.322 193.364 206.995 194.443 211.816C196.811 222.144 196.723 232.884 194.188 243.173L194.099 243.516L194.332 243.804C199.695 250.519 205.235 257.458 210.952 264.623L211.528 263.382L185.656 264.003H185.258L185.025 264.346C178.253 274.675 168.785 282.955 157.646 288.29C155.906 289.13 154.119 289.87 152.295 290.506C150.525 291.236 148.707 291.843 146.854 292.323C139.619 294.43 132.069 295.244 124.55 294.728C117.298 294.283 110.157 292.728 103.376 290.118C96.9296 287.477 90.8988 283.916 85.4711 279.548C80.3474 275.35 75.8677 270.422 72.1751 264.923C71.3109 263.56 70.4688 262.208 69.6267 260.867C68.7846 259.527 68.1863 258.053 67.4107 256.668C66.0542 253.904 64.8809 251.054 63.8984 248.136C60.6767 238.354 59.7247 227.966 61.1146 217.76C62.5045 207.555 66.1998 197.8 71.9203 189.235C75.7675 183.334 80.5458 178.095 86.0694 173.723L89.2826 171.186L92.3075 169.247L94.9113 167.574C95.7312 167.108 96.5068 166.754 97.1273 166.399L100.208 164.793C100.589 164.645 100.956 164.463 101.304 164.25Z" fill="#263238"/>
<path d="M147.845 261.979L151.79 261.972C153.993 261.967 155.775 260.178 155.771 257.975L155.655 197.722C155.651 195.519 153.862 193.737 151.659 193.741L147.714 193.749C145.512 193.753 143.729 195.542 143.733 197.745L143.849 257.998C143.853 260.201 145.643 261.983 147.845 261.979Z" fill="#E0E0E0"/>
<path d="M128.322 262.019L132.267 262.012C134.47 262.007 136.252 260.218 136.248 258.015L136.132 197.762C136.128 195.559 134.339 193.777 132.136 193.781L128.191 193.789C125.988 193.793 124.206 195.582 124.21 197.785L124.326 258.038C124.33 260.241 126.119 262.023 128.322 262.019Z" fill="#E0E0E0"/>
<path d="M106.229 262.054L110.173 262.047C112.376 262.042 114.159 260.253 114.154 258.05L114.039 197.797C114.034 195.594 112.245 193.812 110.042 193.816L106.098 193.824C103.895 193.828 102.112 195.617 102.117 197.82L102.232 258.073C102.237 260.276 104.026 262.059 106.229 262.054Z" fill="#E0E0E0"/>
<path d="M149.646 261.975C149.147 261.911 148.651 261.818 148.162 261.698C146.765 261.306 145.574 260.389 144.838 259.139C144.305 258.256 144.021 257.245 144.018 256.214C144.018 255.05 144.018 253.798 144.018 252.447C144.018 249.732 144.018 246.663 144.018 243.261C144.018 236.447 144.018 228.348 144.018 219.373C144.018 214.874 144.018 210.154 144.018 205.257V201.556C143.931 200.34 144.009 199.117 144.251 197.922C144.645 196.785 145.392 195.804 146.381 195.12C147.371 194.437 148.553 194.086 149.756 194.119C150.959 194.153 152.119 194.568 153.07 195.306C154.02 196.043 154.711 197.064 155.042 198.221C155.215 199.432 155.274 200.656 155.22 201.877C155.22 203.118 155.22 204.359 155.22 205.578C155.22 210.476 155.22 215.196 155.22 219.694C155.22 228.68 155.308 236.768 155.342 243.594C155.342 246.984 155.342 250.064 155.419 252.768C155.419 254.12 155.419 255.394 155.419 256.524C155.373 257.555 155.039 258.553 154.455 259.405C153.641 260.6 152.407 261.447 150.998 261.776C150.023 261.986 149.491 261.931 149.491 261.975C150.004 262.043 150.525 262.024 151.031 261.92C152.509 261.642 153.821 260.8 154.688 259.571C155.332 258.686 155.716 257.638 155.796 256.546C155.796 255.372 155.796 254.131 155.796 252.768C155.796 250.064 155.796 246.984 155.796 243.594C155.796 236.768 155.796 228.68 155.796 219.694C155.796 215.196 155.796 210.476 155.796 205.578V200.038C155.82 199.379 155.757 198.72 155.608 198.077C155.272 196.744 154.501 195.562 153.417 194.717C152.334 193.872 150.999 193.413 149.624 193.412C148.253 193.352 146.899 193.741 145.768 194.52C144.652 195.307 143.826 196.441 143.42 197.745C143.229 198.384 143.135 199.049 143.143 199.717V201.589C143.143 202.83 143.143 204.071 143.143 205.29C143.143 210.187 143.143 214.908 143.198 219.406C143.198 228.381 143.287 236.48 143.32 243.306C143.32 246.696 143.375 249.765 143.386 252.48C143.386 253.832 143.386 255.084 143.386 256.247C143.4 257.339 143.719 258.406 144.306 259.327C145.096 260.61 146.364 261.527 147.829 261.876C148.422 262.034 149.04 262.068 149.646 261.975Z" fill="#263238"/>
<path d="M130.124 262.009C129.621 261.946 129.121 261.857 128.628 261.743C127.429 261.397 126.376 260.668 125.629 259.668C124.883 258.668 124.485 257.451 124.495 256.203C124.495 255.039 124.495 253.787 124.495 252.436C124.495 249.732 124.495 246.652 124.495 243.261C124.495 236.436 124.495 228.348 124.495 219.362V201.59C124.402 200.377 124.48 199.157 124.728 197.966C125.115 196.824 125.858 195.835 126.848 195.145C127.839 194.455 129.023 194.1 130.23 194.133C131.436 194.165 132.6 194.582 133.552 195.324C134.504 196.066 135.193 197.093 135.519 198.254C135.693 199.465 135.749 200.69 135.686 201.911C135.686 203.163 135.686 204.393 135.686 205.623C135.686 210.509 135.686 215.229 135.686 219.727C135.686 228.713 135.774 236.813 135.808 243.627C135.808 247.029 135.808 250.098 135.874 252.812C135.874 254.153 135.874 255.427 135.874 256.568C135.827 257.6 135.494 258.598 134.91 259.449C134.086 260.64 132.851 261.485 131.442 261.82C130.478 262.02 129.935 261.964 129.946 262.009C130.453 262.092 130.969 262.092 131.475 262.009C132.955 261.721 134.268 260.876 135.143 259.649C135.791 258.77 136.175 257.724 136.251 256.635C136.306 255.449 136.251 254.208 136.251 252.857C136.251 250.142 136.251 247.062 136.251 243.671C136.251 236.857 136.251 228.758 136.251 219.772C136.251 215.273 136.251 210.553 136.251 205.656V201.955C136.251 201.335 136.251 200.714 136.251 200.083C136.28 199.423 136.217 198.763 136.062 198.121C135.729 196.79 134.96 195.607 133.878 194.762C132.796 193.917 131.463 193.458 130.09 193.457C128.721 193.389 127.368 193.778 126.243 194.562C125.118 195.346 124.285 196.481 123.874 197.789C123.688 198.43 123.599 199.094 123.608 199.761V201.634C123.608 202.886 123.608 204.116 123.608 205.346C123.608 210.232 123.608 214.952 123.608 219.45C123.608 228.436 123.697 236.525 123.741 243.35C123.741 246.741 123.741 249.821 123.808 252.524C123.808 253.876 123.808 255.139 123.808 256.291C123.819 257.383 124.133 258.449 124.716 259.372C125.513 260.654 126.783 261.569 128.251 261.92C128.86 262.093 129.501 262.123 130.124 262.009Z" fill="#263238"/>
<path d="M108.03 262.053C107.527 261.989 107.027 261.897 106.534 261.776C105.344 261.433 104.298 260.712 103.553 259.723C102.807 258.734 102.403 257.53 102.401 256.291C102.401 255.128 102.401 253.876 102.401 252.524C102.401 249.81 102.401 246.74 102.401 243.35C102.401 236.525 102.401 228.436 102.401 219.45V201.656C102.308 200.443 102.387 199.224 102.634 198.033C103.022 196.89 103.765 195.901 104.755 195.211C105.745 194.522 106.93 194.167 108.136 194.199C109.342 194.231 110.507 194.649 111.459 195.39C112.41 196.132 113.1 197.159 113.426 198.321C113.6 199.531 113.656 200.756 113.592 201.977C113.592 203.218 113.592 204.459 113.592 205.678C113.592 210.575 113.592 215.295 113.592 219.794C113.592 228.78 113.681 236.879 113.714 243.693C113.714 247.084 113.714 250.164 113.781 252.879C113.781 254.219 113.781 255.494 113.781 256.624C113.734 257.655 113.4 258.653 112.817 259.505C111.995 260.7 110.76 261.549 109.349 261.887C108.385 262.086 107.842 262.031 107.853 262.075C108.359 262.158 108.875 262.158 109.382 262.075C110.656 261.825 111.812 261.162 112.671 260.188C113.53 259.215 114.045 257.986 114.135 256.69C114.135 255.516 114.135 254.275 114.135 252.923C114.135 250.208 114.135 247.128 114.135 243.738C114.135 236.912 114.135 228.824 114.135 219.838C114.135 215.34 114.135 210.62 114.135 205.722V200.182C114.153 199.523 114.09 198.865 113.947 198.221C113.609 196.889 112.838 195.708 111.755 194.863C110.671 194.018 109.337 193.559 107.964 193.556C106.594 193.489 105.241 193.877 104.116 194.661C102.991 195.445 102.158 196.58 101.748 197.889C101.567 198.53 101.477 199.194 101.482 199.861V201.656C101.482 202.908 101.482 204.138 101.482 205.357C101.482 210.254 101.482 214.974 101.482 219.473C101.482 228.458 101.57 236.547 101.615 243.372C101.615 246.763 101.615 249.843 101.681 252.546C101.681 253.898 101.681 255.15 101.681 256.314C101.692 257.405 102.007 258.471 102.59 259.394C103.386 260.676 104.656 261.591 106.124 261.942C106.742 262.128 107.395 262.166 108.03 262.053Z" fill="#263238"/>
<path d="M138.566 207.196C138.571 208.853 138.084 210.475 137.166 211.855C136.249 213.235 134.943 214.312 133.413 214.95C131.884 215.587 130.2 215.757 128.574 215.437C126.947 215.117 125.453 214.323 124.279 213.153C123.105 211.984 122.304 210.492 121.977 208.867C121.651 207.243 121.814 205.558 122.446 204.026C123.078 202.493 124.149 201.183 125.526 200.26C126.902 199.338 128.522 198.844 130.179 198.842C132.399 198.839 134.529 199.717 136.101 201.283C137.674 202.85 138.561 204.976 138.566 207.196Z" fill="#FF725E"/>
<path d="M116.506 227.927C116.508 229.584 116.019 231.204 115.101 232.583C114.182 233.961 112.875 235.037 111.345 235.673C109.816 236.309 108.132 236.477 106.506 236.156C104.881 235.835 103.388 235.039 102.215 233.869C101.041 232.699 100.242 231.207 99.9164 229.583C99.591 227.959 99.7547 226.274 100.387 224.743C101.019 223.211 102.091 221.902 103.467 220.979C104.843 220.057 106.462 219.564 108.119 219.562C109.219 219.56 110.308 219.775 111.325 220.195C112.342 220.615 113.266 221.23 114.045 222.007C114.824 222.784 115.442 223.707 115.864 224.722C116.287 225.738 116.505 226.827 116.506 227.927Z" fill="#FF725E"/>
<path d="M157.199 243.588C158.899 239.285 156.79 234.419 152.487 232.719C148.185 231.019 143.319 233.129 141.619 237.431C139.919 241.734 142.028 246.6 146.331 248.3C150.633 250 155.499 247.89 157.199 243.588Z" fill="#FF725E"/>
<path d="M88.2854 505.603H255.405L233.843 388.31C233.473 386.294 232.408 384.472 230.833 383.16C229.258 381.848 227.273 381.13 225.223 381.13H75.0559C73.7649 381.13 72.4898 381.415 71.3217 381.964C70.1536 382.514 69.1214 383.315 68.2989 384.31C67.4764 385.305 66.8839 386.47 66.5637 387.721C66.2435 388.971 66.2036 390.277 66.4468 391.545L88.2854 505.603Z" fill="#455A64"/>
<path d="M255.405 505.603H318.794L318.539 505.414C312.883 501.181 306.056 498.801 298.994 498.6L253.666 497.271L255.405 505.603Z" fill="#455A64"/>
<path d="M215.262 381.285C215.262 381.285 215.728 381.207 216.614 381.196C217.905 381.214 219.176 381.528 220.326 382.116C222.138 383.049 223.668 384.449 224.758 386.171C226.139 388.502 227.068 391.074 227.495 393.75C228.037 396.719 228.514 400.01 229.112 403.522C229.711 407.035 230.353 410.791 231.096 414.735C232.558 422.613 234.276 431.256 236.159 440.319C239.926 458.435 243.417 474.811 245.71 486.711C246.818 492.661 247.738 497.481 248.347 500.816C248.635 502.456 248.868 503.741 249.045 504.661C249.123 505.071 249.189 505.392 249.234 505.658C249.254 505.771 249.284 505.882 249.322 505.99C249.342 505.877 249.342 505.76 249.322 505.647C249.322 505.381 249.245 505.048 249.189 504.638C249.045 503.708 248.857 502.422 248.602 500.783C248.081 497.459 247.261 492.595 246.164 486.633C243.948 474.7 240.558 458.302 236.791 440.186C234.918 431.134 233.168 422.458 231.683 414.625C230.929 410.691 230.265 406.946 229.644 403.434C229.024 399.921 228.536 396.653 227.949 393.661C227.487 390.943 226.513 388.337 225.079 385.983C223.928 384.227 222.324 382.814 220.437 381.894C219.25 381.309 217.936 381.028 216.614 381.074C216.156 381.083 215.701 381.154 215.262 381.285Z" fill="#263238"/>
<path d="M158.484 446.441C161.639 443.287 161.639 438.172 158.484 435.018C155.33 431.864 150.216 431.864 147.061 435.018C143.907 438.172 143.907 443.287 147.061 446.441C150.216 449.595 155.33 449.595 158.484 446.441Z" fill="#F5F5F5"/>
<path d="M527.641 505.492C527.641 505.647 419.566 505.78 286.285 505.78C153.004 505.78 44.9072 505.647 44.9072 505.492C44.9072 505.337 152.904 505.248 286.285 505.248C419.666 505.248 527.641 505.337 527.641 505.492Z" fill="#263238"/>
</svg>
